#
# The license for this database is specified in the Creative Commons Attribution-Share Alike 2.1 Japan. If you use data from this database, please be sure attribute this database as follows: "BodyParts3D, (c)  The Database Center for Life Science licensed under CC Attribution-Share Alike 2.1 Japan".
# http://dbarchive.biosciencedbc.jp/en/bodyparts3d/lic.html
#
#
# Compatibility version : 4.3
# File ID : FJ3187
# Representation ID : BP19712
# Build-up logic : FMA 3.0 is_a
# Concept ID : FMA23957
# English name : Distal phalanx of left ring finger
# Bounds(mm): (245.300000,-194.360000,664.812000)-(253.646000,-178.756000,673.899000)
# Volume(cm3): 0.222900
#
o FJ3187_BP19712_FMA23957_Distal phalanx of left ring finger
v 247.852 -182.938 673.293
v 248.151 -181.392 673.812
v 246.264 -182.224 672.909
v 246.595 -181.712 673.101
v 246.012 -181.35 672.485
v 245.873 -181.841 672.616
v 247.283 -181.292 673.229
v 247.324 -181.744 673.338
v 246.602 -180.889 672.305
v 247.96 -183.385 673.051
v 247.318 -184.076 671.866
v 245.781 -182.651 672.328
v 245.543 -181.637 672.047
v 245.458 -182.3 671.99
v 246.301 -183.222 672.311
v 245.777 -183.096 671.774
v 245.3 -181.923 671.531
v 245.357 -182.309 671.491
v 245.573 -182.545 671.12
v 245.438 -182.174 671.07
v 245.338 -181.644 671.14
v 245.412 -181.389 671.315
v 248.432 -181.051 673.899
v 250.182 -183.387 673.096
v 249.105 -181.453 673.862
v 247.482 -180.982 672.87
v 248.174 -180.678 672.457
v 245.945 -180.52 671.306
v 246.664 -180.162 671.217
v 246.135 -180.364 670.389
v 246.943 -179.34 670.186
v 246.652 -180.272 669.925
v 248.981 -183.972 672.644
v 245.825 -181.664 670.353
v 249.231 -186.388 671.012
v 246.847 -184.298 670.794
v 247.27 -184.227 669.224
v 247.958 -188.868 668.631
v 247.633 -191.263 667.916
v 248.806 -192.818 668.025
v 251.883 -180.968 673.258
v 249.443 -178.859 670.153
v 253.045 -182.523 672.875
v 252.967 -183.105 672.636
v 253.361 -182.689 672.486
v 252.985 -183.437 672.032
v 249.526 -178.756 669.543
v 247.411 -179.279 669.776
v 247.75 -178.972 669.758
v 247.773 -179.225 669.63
v 247.802 -179.875 669.494
v 251.129 -185.05 671.398
v 252.273 -184.05 671.613
v 252.578 -183.987 671.381
v 251.98 -185.344 670.266
v 252.773 -183.813 671.151
v 250.178 -187.575 670.331
v 251.114 -187.466 669.696
v 251.575 -187.428 668.818
v 248.278 -183.748 668.673
v 251.468 -189.77 668.141
v 249.92 -189.874 669.35
v 248.82 -187.754 666.69
v 247.79 -188.372 667.644
v 250.243 -193.737 667.426
v 251.541 -193.307 667.235
v 251.264 -194.045 666.666
v 248.616 -194.195 666.703
v 248.705 -194.36 666.396
v 248.184 -193.752 666.028
v 248.298 -192.769 665.55
v 248.888 -193.756 665.322
v 253.542 -180.942 672.417
v 253.289 -180.799 672.316
v 253.646 -181.152 672.051
v 253.572 -180.712 672.072
v 250.784 -178.794 670.106
v 252.48 -182.31 669.677
v 253.04 -182.422 670.058
v 253.573 -181.67 670.34
v 250.715 -178.968 669.65
v 251.179 -180.176 669.407
v 252.179 -179.623 669.833
v 252.687 -183.347 669.966
v 251.953 -184.922 669.069
v 251.244 -184.046 668.574
v 251.496 -187.968 667.641
v 252.024 -191.033 666.689
v 252.29 -192.365 667.041
v 251.64 -189.667 667.236
v 250.58 -189.019 665.812
v 252.01 -193.357 666.794
v 251.209 -194.001 665.827
v 251.886 -193.782 666.068
v 250.689 -193.545 664.904
v 251.552 -193.432 665.147
v 251.954 -192.613 665.545
v 251.641 -192.654 665.169
v 249.992 -192.709 664.82
v 250.728 -193.057 664.812
v 248.432 -181.051 673.899
v 248.432 -181.051 673.899
v 246.943 -179.34 670.186
v 246.943 -179.34 670.186
v 249.231 -186.388 671.012
v 246.847 -184.298 670.794
v 246.847 -184.298 670.794
v 247.958 -188.868 668.631
v 247.633 -191.263 667.916
v 248.806 -192.818 668.025
v 251.883 -180.968 673.258
v 252.967 -183.105 672.636
v 249.526 -178.756 669.543
v 249.526 -178.756 669.543
v 247.75 -178.972 669.758
v 248.278 -183.748 668.673
v 249.92 -189.874 669.35
v 251.264 -194.045 666.666
v 248.616 -194.195 666.703
v 248.705 -194.36 666.396
v 248.705 -194.36 666.396
v 248.705 -194.36 666.396
v 248.184 -193.752 666.028
v 248.184 -193.752 666.028
v 248.184 -193.752 666.028
v 248.888 -193.756 665.322
v 248.888 -193.756 665.322
v 253.542 -180.942 672.417
v 253.572 -180.712 672.072
v 250.715 -178.968 669.65
v 252.179 -179.623 669.833
v 252.179 -179.623 669.833
v 251.953 -184.922 669.069
v 252.29 -192.365 667.041
v 250.58 -189.019 665.812
v 252.01 -193.357 666.794
v 251.886 -193.782 666.068
v 251.886 -193.782 666.068
v 250.689 -193.545 664.904
v 251.552 -193.432 665.147
vn -0.243848 -0.345164 0.906311
vn -0.339079 -0.0719934 0.937999
vn -0.505944 -0.25206 0.824916
vn -0.43307 0.138337 0.890681
vn -0.561519 0.552852 0.615671
vn -0.724257 0.0923184 0.683322
vn -0.435376 0.512812 0.739913
vn -0.399652 -0.0103602 0.916609
vn -0.286533 0.801567 0.524776
vn -0.203012 -0.633835 0.746351
vn -0.40978 -0.718836 0.561565
vn -0.710427 -0.370127 0.598581
vn -0.84974 0.315974 0.422021
vn -0.905373 -0.169536 0.389304
vn -0.483869 -0.634631 0.602589
vn -0.811363 -0.573732 0.111905
vn -0.995867 0.0308103 0.0854421
vn -0.944195 -0.323747 -0.0606898
vn -0.848195 -0.450946 -0.277871
vn -0.899059 -0.218211 -0.379574
vn -0.946492 0.128452 -0.296063
vn -0.911817 0.404882 0.0682713
vn 0.0571053 0.00296657 0.998364
vn 0.140783 -0.527144 0.838033
vn 0.0610344 -0.185108 0.980821
vn -0.274822 0.864182 0.4215
vn -0.111827 0.919128 0.377755
vn -0.6479 0.685288 0.332574
vn -0.185348 0.821558 0.539156
vn -0.82167 0.408387 -0.397592
vn -0.211498 0.822306 0.528282
vn -0.559036 0.21933 -0.799608
vn -0.0590146 -0.648408 0.759003
vn -0.758606 0.0343546 -0.650643
vn 0.157053 -0.45404 0.87703
vn -0.540697 -0.645328 0.539628
vn -0.765034 -0.10044 -0.63611
vn -0.472229 -0.339844 0.81333
vn -0.627081 -0.349981 0.695904
vn -0.551751 -0.363629 0.750563
vn 0.253479 -0.0173544 0.967185
vn -0.101622 0.89445 0.435469
vn 0.460282 -0.180122 0.869308
vn 0.558435 -0.474985 0.680102
vn 0.892922 -0.297099 0.338263
vn 0.659408 -0.695445 0.285547
vn -0.0715797 0.985085 0.156473
vn -0.49163 0.351848 -0.796557
vn -0.133913 0.943215 0.303996
vn -0.266249 0.303548 -0.914861
vn -0.272761 0.163218 -0.948136
vn 0.358475 -0.564199 0.743757
vn 0.421099 -0.696479 0.581027
vn 0.645676 -0.69029 0.326499
vn 0.849697 -0.490367 0.193794
vn 0.859817 -0.508969 0.0408195
vn 0.3439 -0.435604 0.831855
vn 0.682337 -0.392815 0.616533
vn 0.977168 -0.153444 0.146962
vn 0.00163584 0.328283 -0.944578
vn 0.858488 -0.123553 0.497727
vn -0.455948 -0.345816 0.820075
vn -0.410238 0.325291 -0.851992
vn -0.955819 0.0378382 -0.291512
vn 0.111579 -0.688592 0.716513
vn 0.45599 -0.473595 0.753513
vn 0.384409 -0.754933 0.531324
vn -0.794742 -0.508538 0.331323
vn 0.0480265 -0.884794 0.4635
vn -0.834149 -0.515599 0.195839
vn -0.745728 0.0357282 -0.665292
vn 0.00774938 -0.884606 -0.466274
vn 0.837509 0.0352862 0.545283
vn 0.280658 0.766492 0.577687
vn 0.993957 0.0154108 0.108687
vn 0.344025 0.817137 0.46253
vn 0.239473 0.965227 0.104832
vn 0.55297 0.0334205 -0.83253
vn 0.576547 -0.123047 -0.807745
vn 0.908284 -0.132804 -0.396714
vn 0.308373 0.872412 -0.379215
vn 0.265368 0.206493 -0.941775
vn 0.825265 0.494388 -0.272981
vn 0.787389 -0.213788 -0.578198
vn 0.973962 -0.215113 -0.0715817
vn 0.241589 0.26904 -0.932337
vn 0.953308 0.0671868 -0.294431
vn 0.918433 0.283805 -0.275565
vn 0.591489 -0.246669 0.767656
vn 0.977499 0.185586 -0.100269
vn 0.797738 0.26903 -0.539664
vn 0.590696 -0.587879 0.552699
vn 0.198251 -0.913695 -0.354765
vn 0.3817 -0.884999 -0.266612
vn 0.130968 -0.857635 -0.497302
vn 0.338375 -0.79855 -0.497816
vn 0.887541 0.0590692 -0.456926
vn 0.555301 0.124647 -0.822256
vn -0.211541 0.055186 -0.97581
vn 0.192104 0.0189395 -0.981192
vn -0.525635 0.226162 0.820097
vn -0.218817 0.917262 0.332792
vn -0.789484 0.610855 -0.0597652
vn -0.624279 0.45959 -0.631706
vn -0.483538 -0.571941 0.662627
vn -0.814334 -0.527017 -0.243131
vn -0.983642 -0.139789 -0.113609
vn -0.988235 -0.0919568 0.122214
vn -0.992636 0.0280199 -0.117847
vn -0.0196357 -0.56712 0.823401
vn 0.101633 0.851154 0.514983
vn 0.166373 -0.86214 0.478576
vn 0.195497 0.906164 -0.375031
vn -0.0210242 0.252212 -0.967444
vn -0.386319 0.487362 -0.783093
vn -0.5439 0.211087 -0.812167
vn 0.408817 -0.354372 0.841005
vn 0.230473 -0.970869 -0.0655396
vn -0.0498422 -0.789229 0.612073
vn 0.0730477 -0.956688 -0.281801
vn -0.784685 -0.611579 0.10119
vn -0.493587 -0.719104 -0.489143
vn -0.965053 -0.0152606 -0.26161
vn -0.493587 -0.719104 -0.489143
vn -0.685579 -0.252669 -0.682745
vn -0.493587 -0.719104 -0.489143
vn -0.438597 -0.183375 -0.879776
vn 0.242715 0.806878 0.538551
vn 0.957272 0.282526 -0.0617267
vn 0.186028 0.262282 -0.94689
vn 0.483279 0.862651 -0.149249
vn 0.355822 0.160186 -0.920723
vn 0.763521 0.0991628 -0.638124
vn 0.9992 0.0322565 -0.0236598
vn 0.00827489 0.324139 -0.945973
vn 0.963158 -0.268803 -0.00845555
vn 0.612167 -0.723903 0.318145
vn 0.953535 -0.219078 -0.206823
vn 0.00162679 -0.214965 -0.97662
vn 0.616313 -0.138538 -0.775219
f 1//1 8//8 4//4
f 3//3 1//1 4//4 
f 8//8 1//1 2//2 
f 10//10 24//24 1//1 
f 2//2 25//25 23//23 
f 1//1 25//25 2//2 
f 7//7 9//9 5//5 
f 4//4 7//7 5//5 
f 5//5 6//6 4//4 
f 6//6 3//3 4//4 
f 5//5 13//13 6//6 
f 7//7 4//4 8//8 
f 9//9 28//28 5//5 
f 28//28 13//13 5//5 
f 28//28 22//22 13//13 
f 101//101 7//7 2//2 
f 8//8 2//2 7//7 
f 102//102 26//26 7//7 
f 26//26 9//9 7//7 
f 29//29 28//28 9//9 
f 28//28 30//30 22//22 
f 15//15 1//1 3//3 
f 15//15 10//10 1//1 
f 10//10 15//15 11//11 
f 36//36 11//11 15//15 
f 3//3 6//6 12//12 
f 6//6 14//14 12//12 
f 6//6 13//13 14//14 
f 13//13 17//17 14//14 
f 3//3 12//12 15//15 
f 14//14 17//17 18//18 
f 16//16 36//36 15//15 
f 16//16 15//15 12//12 
f 12//12 14//14 16//16 
f 18//18 16//16 14//14 
f 13//13 22//22 17//17 
f 22//22 21//21 17//17 
f 20//20 17//17 21//21 
f 16//16 18//18 19//19 
f 18//18 17//17 20//20 
f 18//18 20//20 19//19 
f 16//16 19//19 37//37 
f 20//20 37//37 19//19 
f 106//106 16//16 37//37 
f 30//30 21//21 22//22 
f 30//30 34//34 21//21 
f 21//21 34//34 20//20 
f 41//41 23//23 25//25 
f 25//25 1//1 24//24 
f 25//25 24//24 41//41 
f 27//27 102//102 111//111 
f 27//27 26//26 102//102 
f 9//9 26//26 27//27 
f 29//29 9//9 27//27 
f 111//111 29//29 27//27 
f 28//28 29//29 31//31 
f 103//103 30//30 28//28 
f 104//104 32//32 30//30 
f 104//104 48//48 32//32 
f 31//31 42//42 49//49 
f 48//48 104//104 115//115 
f 42//42 31//31 29//29 
f 33//33 52//52 24//24 
f 57//57 52//52 35//35 
f 33//33 24//24 10//10 
f 10//10 11//11 33//33 
f 35//35 52//52 33//33 
f 11//11 105//105 33//33 
f 20//20 34//34 37//37 
f 32//32 37//37 34//34 
f 51//51 37//37 32//32 
f 32//32 34//34 30//30 
f 36//36 105//105 11//11 
f 105//105 36//36 62//62 
f 57//57 35//35 117//117 
f 62//62 36//36 38//38 
f 107//107 64//64 108//108 
f 107//107 37//37 64//64 
f 64//64 37//37 63//63 
f 62//62 38//38 39//39 
f 108//108 64//64 109//109 
f 62//62 39//39 40//40 
f 109//109 64//64 71//71 
f 39//39 68//68 40//40 
f 39//39 70//70 68//68 
f 41//41 43//43 73//73 
f 43//43 45//45 73//73 
f 128//128 74//74 111//111 
f 74//74 76//76 111//111 
f 42//42 77//77 47//47 
f 77//77 81//81 113//113 
f 77//77 111//111 76//76 
f 42//42 111//111 77//77 
f 41//41 24//24 43//43 
f 53//53 24//24 52//52 
f 44//44 43//43 24//24 
f 45//45 43//43 44//44 
f 45//45 44//44 46//46 
f 46//46 112//112 24//24 
f 46//46 24//24 53//53 
f 46//46 53//53 54//54 
f 80//80 45//45 46//46 
f 80//80 46//46 56//56 
f 56//56 46//46 54//54 
f 80//80 56//56 55//55 
f 42//42 29//29 111//111 
f 130//130 82//82 114//114 
f 114//114 82//82 86//86 
f 115//115 50//50 48//48 
f 50//50 51//51 48//48 
f 51//51 32//32 48//48 
f 42//42 47//47 49//49 
f 114//114 50//50 115//115 
f 86//86 51//51 114//114 
f 114//114 51//51 50//50 
f 86//86 60//60 51//51 
f 52//52 57//57 58//58 
f 53//53 52//52 55//55 
f 55//55 52//52 58//58 
f 55//55 54//54 53//53 
f 56//56 54//54 55//55 
f 59//59 85//85 55//55 
f 51//51 116//116 37//37 
f 57//57 117//117 58//58 
f 59//59 55//55 58//58 
f 116//116 63//63 37//37 
f 61//61 58//58 117//117 
f 59//59 58//58 61//61 
f 90//90 59//59 61//61 
f 86//86 63//63 60//60 
f 61//61 117//117 89//89 
f 71//71 64//64 63//63 
f 65//65 110//110 119//119 
f 117//117 110//110 65//65 
f 69//69 65//65 119//119 
f 67//67 65//65 69//69 
f 66//66 117//117 65//65 
f 66//66 65//65 67//67 
f 118//118 93//93 94//94 
f 120//120 93//93 118//118 
f 93//93 120//120 72//72 
f 123//123 109//109 71//71 
f 70//70 121//121 68//68 
f 122//122 124//124 126//126 
f 127//127 125//125 71//71 
f 99//99 127//127 71//71 
f 99//99 71//71 63//63 
f 75//75 129//129 73//73 
f 128//128 76//76 74//74 
f 45//45 80//80 75//75 
f 45//45 75//75 73//73 
f 75//75 80//80 129//129 
f 83//83 129//129 80//80 
f 77//77 76//76 131//131 
f 77//77 131//131 81//81 
f 55//55 84//84 80//80 
f 84//84 78//78 79//79 
f 84//84 79//79 80//80 
f 86//86 82//82 78//78 
f 78//78 133//133 86//86 
f 132//132 78//78 82//82 
f 80//80 78//78 132//132 
f 80//80 79//79 78//78 
f 132//132 82//82 130//130 
f 55//55 85//85 84//84 
f 84//84 133//133 78//78 
f 59//59 87//87 85//85 
f 87//87 91//91 133//133 
f 86//86 133//133 91//91 
f 90//90 91//91 87//87 
f 59//59 90//90 87//87 
f 86//86 135//135 63//63 
f 90//90 61//61 134//134 
f 117//117 66//66 89//89 
f 90//90 88//88 91//91 
f 90//90 134//134 88//88 
f 92//92 66//66 67//67 
f 92//92 67//67 137//137 
f 89//89 66//66 92//92 
f 134//134 136//136 138//138 
f 93//93 72//72 95//95 
f 96//96 94//94 93//93 
f 93//93 95//95 96//96 
f 140//140 100//100 98//98 
f 140//140 139//139 100//100 
f 91//91 88//88 97//97 
f 88//88 134//134 97//97 
f 138//138 97//97 134//134 
f 140//140 97//97 138//138 
f 97//97 140//140 98//98 
f 135//135 99//99 63//63 
f 139//139 127//127 99//99 
f 100//100 139//139 99//99 
f 100//100 99//99 135//135 
f 97//97 98//98 91//91 
f 100//100 135//135 98//98 
