#
# The license for this database is specified in the Creative Commons Attribution-Share Alike 2.1 Japan. If you use data from this database, please be sure attribute this database as follows: "BodyParts3D, (c)  The Database Center for Life Science licensed under CC Attribution-Share Alike 2.1 Japan".
# http://dbarchive.biosciencedbc.jp/en/bodyparts3d/lic.html
#
#
# Compatibility version : 4.3
# File ID : FJ3278
# Representation ID : BP19645
# Build-up logic : FMA 3.0 is_a
# Concept ID : FMA24436
# English name : Left scaphoid
# Bounds(mm): (249.452000,-126.444000,796.220000)-(272.977000,-111.527000,811.682000)
# Volume(cm3): 1.591200
#
o FJ3278_BP19645_FMA24436_Left scaphoid
v 250.775 -118.4 809.531
v 250.974 -119.8 809.448
v 250.804 -119.959 808.415
v 249.661 -117.821 808.151
v 249.597 -117.784 807.613
v 249.922 -116.14 808.165
v 249.452 -115.837 807.32
v 250.121 -113.78 806.114
v 250.676 -115.136 808.142
v 250.899 -118.863 805.618
v 249.67 -114.905 805.632
v 249.683 -114.409 806.017
v 250.333 -113.987 804.231
v 250.372 -112.901 804.273
v 252.254 -119.899 810.288
v 251.954 -117.223 809.984
v 252.002 -120.928 808.82
v 253.853 -113.477 808.25
v 251.33 -113.045 806.336
v 252.961 -120.157 805.232
v 253.858 -118.984 804.249
v 250.858 -112.399 804.506
v 250.982 -112.924 803.469
v 252.071 -111.934 803.394
v 252.288 -111.937 804.74
v 252.051 -117.323 803.571
v 252.938 -117.788 803.547
v 252.261 -115.734 802.735
v 252.501 -114.514 801.715
v 253.046 -116.137 802.553
v 252.519 -113.475 801.656
v 255.875 -115.906 810.972
v 254.827 -117.385 803.551
v 254.863 -111.527 804.494
v 253.865 -114.406 800.967
v 253.883 -112.837 800.904
v 253.797 -113.607 800.623
v 254.54 -113.225 800.333
v 255.136 -113.684 800.299
v 255.417 -112.855 800.11
v 255.355 -112.551 800.421
v 255.829 -113.207 799.86
v 255.874 -112.794 800.001
v 257.695 -122.135 810.23
v 257.116 -118.228 811.682
v 257.989 -114.616 810.068
v 257.35 -122.903 806.295
v 257.934 -121 804.426
v 259.047 -111.722 803.95
v 258.342 -114.429 800.6
v 258.737 -113.969 800.299
v 256.187 -111.757 801.729
v 256.596 -113.628 799.939
v 256.727 -112.304 800.323
v 256.875 -112.816 799.833
v 257.985 -113.759 799.965
v 257.961 -113.401 799.809
v 258.28 -112.029 800.952
v 258.336 -112.449 800.255
v 260.913 -118.679 811.333
v 260.785 -116.571 811.159
v 260.709 -122.939 804.335
v 260.603 -121.959 803.217
v 261.617 -117.421 801.185
v 259.555 -116.01 801.555
v 260.179 -115.05 800.908
v 260.955 -114.062 801.187
v 259.148 -113.294 800.432
v 259.723 -112.091 802.372
v 259.837 -112.166 801.81
v 261.532 -113.091 802.073
v 264.676 -120.17 809.447
v 265.158 -117.813 810.08
v 263.656 -116.553 810.515
v 264.304 -115.177 809.74
v 263.426 -121.862 808.527
v 262.767 -112.869 805.346
v 263.393 -113.179 807.669
v 264.004 -112.968 806.604
v 264.605 -113.865 805.409
v 265.033 -124.475 805.135
v 265.37 -123.972 806.259
v 262.675 -123.328 805.836
v 262.295 -113.04 804.654
v 262.398 -113.201 804.362
v 262.592 -113.234 804.015
v 263.187 -113.688 804.857
v 263.188 -113.72 804.496
v 263.224 -113.49 804.1
v 263.911 -114.029 804.876
v 263.252 -113.414 803.576
v 263.899 -113.801 805.253
v 263.882 -113.908 804.49
v 262.341 -117.86 800.532
v 262.075 -116.116 800.747
v 263.021 -114.922 801.203
v 264.226 -114.475 802.181
v 263.499 -123.993 801.489
v 262.998 -121.293 799.813
v 263.153 -116.938 799.799
v 264.09 -121.569 797.432
v 264.64 -121.057 796.497
v 264.163 -119.466 797.23
v 266.245 -118.808 809.044
v 266.502 -117.749 809.075
v 265.27 -115.585 809.657
v 265.24 -115.06 809.293
v 265.704 -115.531 809.273
v 266.469 -116.674 808.925
v 267.06 -123.25 807.352
v 266.892 -120.362 808.386
v 267.596 -119.167 808.472
v 267.046 -115.419 806.989
v 265.081 -113.587 806.876
v 266.577 -124.996 806.249
v 268.525 -124.57 807.141
v 264.979 -114.136 804.946
v 264.865 -114.128 804.136
v 266.042 -114.568 805.221
v 266.437 -114.634 803.966
v 266.233 -114.521 803.202
v 267.374 -126.276 804.246
v 265.055 -115.918 800.202
v 266.521 -125.597 800.236
v 266.922 -125.247 799.308
v 265.714 -124.686 798.824
v 266.615 -123.668 797.216
v 267.531 -122.501 796.748
v 265.074 -122.521 796.678
v 265.324 -121.408 796.22
v 265.824 -122.406 796.33
v 266.015 -120.707 796.255
v 267.199 -119.839 796.881
v 264.855 -118.403 797.2
v 264.939 -119.697 796.562
v 266.321 -117.969 797.66
v 266.196 -119.465 796.592
v 268.734 -121.559 808.003
v 270.743 -121.935 807.473
v 268.378 -118.548 808.191
v 269.044 -126.444 805.091
v 269.873 -116.91 804.006
v 267.582 -115.046 802.94
v 268.494 -126.314 802.197
v 270.007 -122.009 798.851
v 269.444 -118.164 799.874
v 269.16 -123.697 798.762
v 271.548 -121.553 806.999
v 271.189 -119.951 806.605
v 271.961 -123.75 806.636
v 271.969 -125.651 805.528
v 272.741 -124.55 805.648
v 272.809 -123.134 805.708
v 272.608 -124.636 804.219
v 272.977 -123.219 804.836
v 272.332 -120.862 805.124
v 271.771 -125.844 804.241
v 270.831 -120.305 800.466
v 249.683 -114.409 806.017
v 250.372 -112.901 804.273
v 250.372 -112.901 804.273
v 252.254 -119.899 810.288
v 252.002 -120.928 808.82
v 250.858 -112.399 804.506
v 250.982 -112.924 803.469
v 254.54 -113.225 800.333
v 257.35 -122.903 806.295
v 257.35 -122.903 806.295
v 260.709 -122.939 804.335
v 260.179 -115.05 800.908
v 264.004 -112.968 806.604
v 262.075 -116.116 800.747
v 269.044 -126.444 805.091
v 271.969 -125.651 805.528
v 271.969 -125.651 805.528
v 271.771 -125.844 804.241
vn -0.632644 0.0320698 0.773778
vn -0.716351 -0.463961 0.521135
vn -0.785994 -0.618109 -0.0124511
vn -0.911459 -0.154139 0.381423
vn -0.945094 -0.29718 -0.135944
vn -0.680307 0.286737 0.67451
vn -0.94267 0.207763 0.261164
vn -0.687932 0.621539 0.374752
vn -0.526207 0.546799 0.651243
vn -0.698725 -0.553267 -0.453519
vn -0.927179 -0.0839632 -0.365087
vn -0.75493 0.527216 0.39003
vn -0.801172 -0.131425 -0.583824
vn -0.78672 0.591837 0.175501
vn -0.359334 -0.0919881 0.928664
vn -0.409884 0.238461 0.880415
vn -0.424081 -0.808903 0.407223
vn -0.164176 0.794623 0.584484
vn -0.396255 0.768383 0.502563
vn -0.352037 -0.664324 -0.659351
vn -0.096112 -0.475045 -0.874697
vn -0.499657 0.823197 0.26961
vn -0.585568 0.565579 -0.580715
vn -0.357881 0.872928 -0.331538
vn -0.22961 0.931499 0.282113
vn -0.550039 -0.406129 -0.729737
vn -0.103625 -0.5246 -0.845019
vn -0.588802 -0.381149 -0.712767
vn -0.616195 -0.272743 -0.738861
vn -0.242264 -0.529316 -0.8131
vn -0.658554 0.198854 -0.725785
vn -0.181376 0.467792 0.865028
vn -0.0658043 -0.560858 -0.825293
vn -0.0395238 0.983854 0.174553
vn -0.225041 -0.53884 -0.811793
vn -0.477808 0.530585 -0.700127
vn -0.460747 -0.0685214 -0.884882
vn -0.412114 0.36013 -0.83694
vn -0.198113 -0.475246 -0.857259
vn -0.326881 0.481562 -0.813171
vn -0.263651 0.755161 -0.600183
vn -0.21936 -0.0119282 -0.975571
vn -0.195353 0.562562 -0.803344
vn -0.00750063 -0.738977 0.673689
vn -0.0998163 -0.0191767 0.994821
vn 0.0239155 0.690886 0.722568
vn -0.136656 -0.98651 0.0901241
vn -0.319301 -0.447649 -0.835259
vn 0.219724 0.971982 -0.0835007
vn -0.0278356 -0.618264 -0.785477
vn 0.261222 -0.350761 -0.899294
vn -0.0401556 0.973575 -0.224811
vn -0.0755722 -0.470354 -0.879236
vn -0.0897013 0.82743 -0.554358
vn -0.0182514 0.325829 -0.945253
vn 0.0967798 -0.538061 -0.837331
vn 0.226493 -0.0687342 -0.971584
vn 0.133326 0.946788 -0.292943
vn 0.304293 0.605051 -0.735744
vn 0.207429 -0.163032 0.964569
vn 0.111428 0.341332 0.933315
vn -0.178985 -0.983642 -0.020295
vn -0.629266 -0.412171 -0.658892
vn -0.524622 -0.203029 -0.826771
vn -0.244485 -0.425691 -0.871214
vn -0.125338 -0.49104 -0.862073
vn 0.266185 0.30156 -0.915536
vn 0.452804 0.134628 -0.881387
vn 0.326598 0.943188 -0.0610803
vn 0.369755 0.869814 -0.326658
vn 0.442747 0.62571 -0.642232
vn 0.339482 -0.429777 0.836686
vn 0.502389 -0.0322849 0.864039
vn 0.269962 0.213106 0.938992
vn 0.193722 0.580582 0.79082
vn 0.0945522 -0.702965 0.704911
vn 0.479131 0.724705 -0.495213
vn 0.165405 0.867908 0.468377
vn 0.417954 0.80846 -0.414374
vn 0.273716 0.866157 -0.418153
vn -0.47861 -0.827049 0.294825
vn -0.322557 -0.728604 0.604229
vn -0.181879 -0.952739 0.243328
vn 0.513894 0.797875 -0.315131
vn 0.516089 0.855111 -0.0493714
vn 0.360852 0.907944 0.213129
vn 0.518146 0.7816 -0.347313
vn 0.388939 0.891793 0.231155
vn 0.311186 0.886587 0.342239
vn 0.269355 0.952235 -0.143861
vn 0.411034 0.906362 -0.0977732
vn 0.357334 0.768356 -0.530982
vn 0.280312 0.891494 0.355898
vn -0.791788 -0.00821587 -0.610741
vn -0.501744 -0.1601 -0.850071
vn 0.137162 0.577257 -0.80496
vn 0.297089 0.844405 -0.445778
vn -0.6349 -0.73731 -0.230816
vn -0.835682 -0.250722 -0.488645
vn -0.549593 0.4362 -0.712514
vn -0.856102 -0.217993 -0.468582
vn -0.632175 -0.057193 -0.772712
vn -0.743903 0.193626 -0.639623
vn 0.437758 -0.214035 0.873245
vn 0.489508 -0.0204867 0.871758
vn 0.438144 0.352703 0.82682
vn 0.439188 0.670871 0.597533
vn 0.670846 0.430981 0.603507
vn 0.643461 0.265502 0.71796
vn -0.117006 -0.444472 0.888119
vn 0.220775 -0.320636 0.921114
vn 0.310789 -0.122521 0.942549
vn 0.651463 0.687808 0.320181
vn 0.539578 0.836885 0.092082
vn -0.374438 -0.691571 0.617677
vn 0.0316586 -0.48602 0.873374
vn 0.274567 0.938522 -0.209258
vn 0.307363 0.950919 0.0358033
vn 0.447969 0.893781 -0.0218965
vn 0.41507 0.905555 0.0876723
vn 0.283132 0.953126 -0.106707
vn -0.377517 -0.918286 0.119296
vn -0.000551625 0.756321 -0.6542
vn -0.304648 -0.92171 -0.240085
vn 0.0824067 -0.853982 -0.513736
vn -0.392487 -0.789709 -0.471501
vn 0.0459861 -0.697712 -0.7149
vn 0.446853 -0.218389 -0.867542
vn -0.541967 -0.495459 -0.678816
vn -0.244096 -0.0621658 -0.967757
vn -0.0169163 -0.329886 -0.943869
vn 0.161488 0.103634 -0.981418
vn 0.541321 0.29416 -0.787681
vn -0.261685 0.57962 -0.771726
vn -0.293776 0.259591 -0.91995
vn 0.287648 0.678982 -0.675457
vn 0.154327 0.410001 -0.898934
vn 0.133179 -0.182693 0.974108
vn 0.333705 -0.10567 0.936736
vn 0.496145 0.18886 0.84745
vn -0.116171 -0.791818 0.599607
vn 0.776885 0.629601 0.00724022
vn 0.432129 0.8652 -0.25435
vn 0.123287 -0.952858 -0.277242
vn 0.758046 -0.0519334 -0.65013
vn 0.658374 0.565484 -0.496762
vn 0.545945 -0.587009 -0.5978
vn 0.685191 0.176873 0.706562
vn 0.722261 0.471011 0.506446
vn 0.518307 -0.227143 0.824478
vn 0.285621 -0.5622 0.776114
vn 0.896407 -0.298824 0.327352
vn 0.889284 0.0920487 0.447996
vn 0.884002 -0.339983 -0.32086
vn 0.994559 0.0462511 -0.0933492
vn 0.91317 0.378638 0.150844
vn 0.218792 -0.975678 0.0134968
vn 0.860682 0.259706 -0.437927
vn -0.979162 0.139636 -0.147455
vn -0.905039 0.0982471 -0.413825
vn -0.601908 0.684569 -0.411184
vn -0.3659 -0.731376 0.575505
vn -0.508594 -0.801838 -0.313669
vn -0.591482 0.73132 -0.339588
vn -0.773678 0.00757266 -0.633534
vn -0.280684 -0.296788 -0.912761
vn -0.452233 -0.839519 -0.301153
vn -0.365285 -0.636638 -0.679161
vn -0.526167 -0.663435 -0.53198
vn 0.267717 0.0559597 -0.961871
vn 0.248876 0.912753 0.323948
vn -0.0510742 0.414803 -0.908477
vn 0.118215 -0.992988 -0.00053427
vn 0.245227 -0.96355 0.10694
vn 0.820422 -0.570269 -0.0412457
vn 0.67638 -0.636269 -0.371042
f 2//2 15//15 1//1
f 5//5 3//3 4//4 
f 4//4 3//3 2//2 
f 2//2 1//1 4//4 
f 17//17 2//2 3//3 
f 17//17 162//162 2//2 
f 1//1 6//6 4//4 
f 4//4 7//7 5//5 
f 4//4 6//6 7//7 
f 5//5 7//7 11//11 
f 11//11 10//10 5//5 
f 6//6 9//9 7//7 
f 5//5 10//10 3//3 
f 12//12 9//9 8//8 
f 12//12 7//7 9//9 
f 8//8 14//14 12//12 
f 22//22 14//14 8//8 
f 8//8 19//19 22//22 
f 163//163 3//3 10//10 
f 163//163 10//10 20//20 
f 10//10 11//11 26//26 
f 26//26 20//20 10//10 
f 11//11 13//13 26//26 
f 7//7 159//159 11//11 
f 160//160 11//11 159//159 
f 160//160 13//13 11//11 
f 161//161 164//164 24//24 
f 161//161 24//24 23//23 
f 13//13 160//160 165//165 
f 15//15 16//16 1//1 
f 16//16 15//15 45//45 
f 45//45 32//32 16//16 
f 45//45 15//15 44//44 
f 6//6 1//1 16//16 
f 9//9 6//6 16//16 
f 32//32 9//9 16//16 
f 162//162 17//17 44//44 
f 44//44 17//17 47//47 
f 8//8 9//9 19//19 
f 18//18 19//19 9//9 
f 22//22 19//19 25//25 
f 25//25 19//19 18//18 
f 18//18 34//34 25//25 
f 48//48 20//20 21//21 
f 27//27 20//20 26//26 
f 20//20 27//27 21//21 
f 21//21 27//27 33//33 
f 30//30 33//33 27//27 
f 25//25 24//24 22//22 
f 23//23 24//24 36//36 
f 34//34 24//24 25//25 
f 26//26 13//13 28//28 
f 30//30 27//27 26//26 
f 26//26 28//28 30//30 
f 165//165 29//29 13//13 
f 31//31 29//29 165//165 
f 13//13 29//29 28//28 
f 29//29 31//31 37//37 
f 30//30 28//28 29//29 
f 29//29 37//37 35//35 
f 29//29 35//35 30//30 
f 23//23 36//36 31//31 
f 45//45 44//44 60//60 
f 18//18 9//9 32//32 
f 78//78 18//18 46//46 
f 34//34 18//18 78//78 
f 167//167 163//163 20//20 
f 168//168 20//20 48//48 
f 21//21 33//33 48//48 
f 49//49 52//52 34//34 
f 52//52 24//24 34//34 
f 30//30 35//35 33//33 
f 31//31 36//36 37//37 
f 36//36 38//38 37//37 
f 40//40 38//38 36//36 
f 35//35 37//37 39//39 
f 39//39 37//37 166//166 
f 33//33 35//35 39//39 
f 41//41 40//40 36//36 
f 42//42 39//39 166//166 
f 38//38 40//40 42//42 
f 41//41 36//36 24//24 
f 33//33 39//39 53//53 
f 39//39 42//42 53//53 
f 52//52 54//54 24//24 
f 54//54 41//41 24//24 
f 54//54 43//43 41//41 
f 40//40 41//41 43//43 
f 40//40 43//43 42//42 
f 45//45 61//61 32//32 
f 18//18 32//32 46//46 
f 61//61 46//46 32//32 
f 60//60 61//61 45//45 
f 75//75 78//78 46//46 
f 47//47 83//83 44//44 
f 34//34 78//78 49//49 
f 83//83 47//47 62//62 
f 169//169 168//168 63//63 
f 168//168 48//48 63//63 
f 48//48 33//33 65//65 
f 50//50 65//65 33//33 
f 56//56 50//50 53//53 
f 50//50 56//56 51//51 
f 33//33 53//53 50//50 
f 55//55 43//43 54//54 
f 53//53 42//42 55//55 
f 42//42 43//43 55//55 
f 49//49 58//58 52//52 
f 58//58 54//54 52//52 
f 56//56 53//53 57//57 
f 57//57 53//53 55//55 
f 58//58 59//59 54//54 
f 59//59 55//55 54//54 
f 56//56 57//57 51//51 
f 59//59 57//57 55//55 
f 57//57 68//68 51//51 
f 68//68 57//57 59//59 
f 72//72 60//60 44//44 
f 61//61 75//75 46//46 
f 60//60 74//74 61//61 
f 74//74 75//75 61//61 
f 83//83 76//76 44//44 
f 49//49 69//69 58//58 
f 84//84 49//49 77//77 
f 84//84 69//69 49//49 
f 69//69 91//91 70//70 
f 169//169 63//63 98//98 
f 99//99 98//98 63//63 
f 95//95 64//64 65//65 
f 48//48 64//64 63//63 
f 48//48 65//65 64//64 
f 63//63 64//64 94//94 
f 94//94 64//64 95//95 
f 66//66 50//50 51//51 
f 68//68 170//170 51//51 
f 65//65 50//50 66//66 
f 67//67 68//68 71//71 
f 67//67 170//170 68//68 
f 65//65 66//66 95//95 
f 170//170 67//67 172//172 
f 71//71 68//68 59//59 
f 70//70 58//58 69//69 
f 59//59 58//58 70//70 
f 71//71 59//59 70//70 
f 60//60 73//73 74//74 
f 60//60 72//72 73//73 
f 106//106 74//74 73//73 
f 106//106 75//75 74//74 
f 106//106 107//107 75//75 
f 107//107 78//78 75//75 
f 44//44 76//76 72//72 
f 76//76 111//111 72//72 
f 79//79 77//77 49//49 
f 77//77 92//92 87//87 
f 49//49 78//78 171//171 
f 79//79 92//92 77//77 
f 171//171 78//78 114//114 
f 79//79 80//80 92//92 
f 114//114 80//80 79//79 
f 78//78 107//107 114//114 
f 81//81 82//82 83//83 
f 76//76 82//82 110//110 
f 98//98 122//122 81//81 
f 76//76 83//83 82//82 
f 85//85 86//86 69//69 
f 85//85 69//69 84//84 
f 77//77 87//87 84//84 
f 87//87 85//85 84//84 
f 87//87 88//88 85//85 
f 88//88 86//86 85//85 
f 86//86 91//91 69//69 
f 86//86 88//88 89//89 
f 86//86 89//89 91//91 
f 90//90 87//87 92//92 
f 87//87 90//90 88//88 
f 93//93 89//89 88//88 
f 93//93 88//88 90//90 
f 70//70 91//91 71//71 
f 117//117 118//118 90//90 
f 90//90 118//118 93//93 
f 89//89 93//93 118//118 
f 89//89 118//118 91//91 
f 91//91 97//97 71//71 
f 80//80 117//117 90//90 
f 80//80 90//90 92//92 
f 114//114 117//117 80//80 
f 98//98 83//83 62//62 
f 81//81 83//83 98//98 
f 96//96 67//67 71//71 
f 67//67 96//96 172//172 
f 96//96 123//123 172//172 
f 97//97 96//96 71//71 
f 124//124 98//98 126//126 
f 98//98 99//99 101//101 
f 63//63 94//94 99//99 
f 94//94 95//95 100//100 
f 123//123 100//100 172//172 
f 94//94 101//101 99//99 
f 101//101 94//94 103//103 
f 94//94 100//100 103//103 
f 100//100 123//123 134//134 
f 129//129 126//126 98//98 
f 103//103 102//102 101//101 
f 101//101 129//129 98//98 
f 102//102 103//103 135//135 
f 129//129 101//101 102//102 
f 100//100 134//134 103//103 
f 103//103 134//134 135//135 
f 104//104 73//73 72//72 
f 105//105 109//109 73//73 
f 73//73 104//104 105//105 
f 104//104 112//112 105//105 
f 140//140 109//109 105//105 
f 73//73 108//108 106//106 
f 108//108 107//107 106//106 
f 108//108 114//114 107//107 
f 109//109 108//108 73//73 
f 109//109 113//113 108//108 
f 76//76 110//110 111//111 
f 111//111 110//110 138//138 
f 116//116 138//138 110//110 
f 72//72 111//111 104//104 
f 104//104 111//111 112//112 
f 112//112 140//140 105//105 
f 140//140 113//113 109//109 
f 108//108 113//113 114//114 
f 119//119 114//114 113//113 
f 81//81 115//115 82//82 
f 110//110 115//115 116//116 
f 115//115 110//110 82//82 
f 115//115 81//81 122//122 
f 141//141 115//115 122//122 
f 141//141 116//116 115//115 
f 113//113 120//120 119//119 
f 119//119 117//117 114//114 
f 118//118 97//97 91//91 
f 119//119 118//118 117//117 
f 119//119 121//121 118//118 
f 120//120 121//121 119//119 
f 121//121 120//120 143//143 
f 121//121 97//97 118//118 
f 143//143 97//97 121//121 
f 120//120 113//113 143//143 
f 124//124 144//144 122//122 
f 122//122 144//144 173//173 
f 98//98 124//124 122//122 
f 96//96 97//97 123//123 
f 143//143 123//123 97//97 
f 136//136 123//123 143//143 
f 144//144 124//124 125//125 
f 124//124 126//126 125//125 
f 123//123 136//136 134//134 
f 147//147 125//125 127//127 
f 127//127 125//125 126//126 
f 126//126 129//129 127//127 
f 127//127 129//129 131//131 
f 127//127 131//131 128//128 
f 127//127 128//128 147//147 
f 131//131 129//129 130//130 
f 129//129 102//102 130//130 
f 135//135 130//130 102//102 
f 132//132 131//131 130//130 
f 132//132 130//130 135//135 
f 128//128 131//131 132//132 
f 132//132 135//135 137//137 
f 137//137 136//136 133//133 
f 133//133 132//132 137//137 
f 134//134 137//137 135//135 
f 136//136 137//137 134//134 
f 150//150 139//139 116//116 
f 139//139 138//138 116//116 
f 138//138 112//112 111//111 
f 139//139 140//140 138//138 
f 138//138 140//140 112//112 
f 140//140 149//149 113//113 
f 151//151 116//116 141//141 
f 116//116 151//151 150//150 
f 142//142 143//143 113//113 
f 149//149 142//142 113//113 
f 157//157 173//173 144//144 
f 157//157 174//174 173//173 
f 147//147 176//176 144//144 
f 147//147 144//144 125//125 
f 145//145 154//154 147//147 
f 128//128 133//133 145//145 
f 146//146 158//158 133//133 
f 158//158 145//145 133//133 
f 146//146 136//136 143//143 
f 133//133 136//136 146//146 
f 142//142 146//146 143//143 
f 128//128 145//145 147//147 
f 132//132 133//133 128//128 
f 150//150 148//148 139//139 
f 148//148 149//149 140//140 
f 139//139 148//148 140//140 
f 156//156 149//149 148//148 
f 148//148 150//150 153//153 
f 156//156 148//148 153//153 
f 152//152 150//150 151//151 
f 154//154 152//152 175//175 
f 154//154 175//175 176//176 
f 150//150 152//152 153//153 
f 152//152 154//154 155//155 
f 153//153 152//152 155//155 
f 156//156 153//153 155//155 
f 158//158 156//156 155//155 
f 142//142 156//156 158//158 
f 142//142 149//149 156//156 
f 176//176 147//147 154//154 
f 158//158 155//155 154//154 
f 158//158 146//146 142//142 
f 145//145 158//158 154//154 
