#
# The license for this database is specified in the Creative Commons Attribution-Share Alike 2.1 Japan. If you use data from this database, please be sure attribute this database as follows: "BodyParts3D, (c)  The Database Center for Life Science licensed under CC Attribution-Share Alike 2.1 Japan".
# http://dbarchive.biosciencedbc.jp/en/bodyparts3d/lic.html
#
#
# Compatibility version : 4.3
# File ID : FJ3314
# Representation ID : BP23837
# Build-up logic : FMA 3.0 is_a
# Concept ID : FMA66791
# English name : Proximal phalanx of left little finger
# Bounds(mm): (222.227000,-159.461000,703.385000)-(236.294000,-138.668000,735.790000)
# Volume(cm3): 1.501000
#
o FJ3314_BP23837_FMA66791_Proximal phalanx of left little finger
v 223.481 -142.309 731.149
v 223.896 -141.024 731.78
v 224.797 -143.244 735.426
v 224.838 -140.668 733.699
v 225.641 -139.758 733.117
v 225.519 -140.861 734.37
v 226.463 -139.795 733.344
v 223.076 -143.65 733.211
v 226.948 -138.882 731.206
v 224.145 -141.202 730.134
v 225.38 -140.015 729.619
v 226.628 -141.125 725.696
v 224.344 -145.941 724.981
v 224.523 -143.75 725.555
v 224.024 -146.944 721.471
v 224.314 -147.478 721.484
v 223.965 -151.874 714.191
v 223.48 -151.212 713.717
v 223.105 -152.802 711.129
v 222.769 -154.375 710.097
v 223.122 -153.777 711.125
v 222.951 -154.534 710.481
v 223.306 -154.332 710.93
v 223.194 -154.8 710.534
v 223.733 -154.923 710.569
v 222.964 -157.827 709.111
v 222.456 -155.531 709.184
v 222.47 -156.139 709.584
v 223.023 -155.759 710.057
v 223.116 -152.626 709.201
v 223.658 -152.562 707.592
v 222.227 -158.086 707.24
v 222.643 -158.597 706.476
v 222.601 -156.664 705.5
v 222.286 -157.827 706.198
v 222.815 -158.32 705.677
v 223.183 -154.963 704.792
v 224.287 -153.889 704.892
v 224.155 -154.819 704.215
v 225.28 -154.046 704.62
v 222.726 -157.072 704.962
v 223.305 -157.528 704.684
v 223.802 -156.502 704.231
v 226.67 -143.198 735.311
v 226.832 -146.187 735.229
v 227.9 -138.788 731.529
v 228.399 -138.668 729.842
v 228.143 -139.762 732.54
v 226.013 -146.521 732.492
v 229.559 -140.237 725.701
v 226.371 -147.512 725.147
v 227.585 -147.986 712.748
v 223.147 -158.803 707.667
v 223.487 -158.564 705.767
v 225.565 -158.68 706.762
v 224.639 -157.423 704.372
v 225.743 -158.594 705.514
v 229.539 -145.253 735.79
v 228.676 -146.728 734.382
v 229.717 -142.044 733.25
v 231.706 -138.743 729.219
v 232.225 -138.69 730.117
v 232.849 -139.403 731.279
v 230.391 -146.847 732.4
v 232.724 -140.275 726.902
v 230.424 -144.23 719.413
v 229.068 -152.46 714.991
v 230.731 -151.716 713.984
v 231.409 -150.508 713.745
v 228.637 -154.288 711.657
v 229.958 -154.189 711.131
v 230.63 -153.322 710.73
v 229.527 -155.715 709.491
v 230.196 -152.446 709.029
v 230.426 -154.323 707.576
v 226.366 -157.792 708.319
v 227.764 -159.25 706.873
v 228.263 -159.461 705.768
v 227.873 -155.277 703.708
v 227.876 -156.526 703.498
v 228.768 -156.049 703.385
v 228.074 -158.311 704.082
v 229.373 -156.329 703.734
v 229.697 -156.331 704.36
v 229.154 -157.628 703.735
v 229.626 -157.67 704.179
v 228.643 -154.664 704.42
v 229.308 -155.491 704.04
v 232.263 -145.863 734.928
v 233.439 -144.762 734.891
v 233.159 -145.521 734.932
v 233.802 -143.503 734.1
v 234.308 -139.319 729.558
v 234.439 -139.356 731.152
v 235.155 -140.208 732.009
v 235.384 -139.868 731.141
v 233.832 -139.692 728.43
v 233.972 -141.003 727.087
v 235.659 -140.563 729.215
v 235.144 -142.135 727.345
v 232.903 -147.123 727.057
v 233.858 -146.666 724.725
v 232.968 -147.563 722.995
v 233.251 -144.887 722.43
v 233.297 -147.125 723.018
v 231.427 -148.645 721.125
v 232.587 -147.917 719.808
v 231.657 -150.038 715.656
v 231.108 -151.487 713.189
v 230.075 -155.562 709.456
v 230.393 -155.278 709.296
v 230.238 -156.75 708.895
v 230.66 -156.517 708.745
v 230.536 -157.055 708.495
v 230.668 -156.597 708.388
v 230.547 -157.011 707.564
v 229.584 -158.533 707.879
v 229.249 -159.358 706.77
v 229.956 -158.896 706.643
v 229.346 -158.874 704.671
v 229.543 -159.31 705.648
v 229.731 -158.804 705.133
v 234.742 -146.188 733.358
v 234.779 -143.494 733.984
v 234.803 -144.468 734.23
v 236.186 -143.754 732.681
v 235.735 -145.7 732.66
v 235.517 -141.94 733.044
v 235.858 -140.595 731.768
v 234.342 -146.763 732.516
v 234.001 -146.793 729.948
v 235.329 -146.223 729.812
v 234.853 -146.946 731.039
v 235.52 -146.473 731.879
v 235.755 -146.321 730.649
v 236.256 -145.226 731.514
v 236.005 -144.324 728.91
v 236.294 -141.991 729.702
v 235.027 -145.858 728.093
v 224.797 -143.244 735.426
v 224.797 -143.244 735.426
v 225.519 -140.861 734.37
v 223.076 -143.65 733.211
v 224.344 -145.941 724.981
v 222.951 -154.534 710.481
v 222.964 -157.827 709.111
v 222.964 -157.827 709.111
v 222.47 -156.139 709.584
v 222.643 -158.597 706.476
v 222.815 -158.32 705.677
v 226.832 -146.187 735.229
v 226.832 -146.187 735.229
v 223.147 -158.803 707.667
v 225.743 -158.594 705.514
v 229.539 -145.253 735.79
v 228.676 -146.728 734.382
v 227.873 -155.277 703.708
v 233.297 -147.125 723.018
v 230.393 -155.278 709.296
v 230.66 -156.517 708.745
v 230.536 -157.055 708.495
v 229.956 -158.896 706.643
v 229.346 -158.874 704.671
v 229.543 -159.31 705.648
vn -0.957385 0.239081 -0.162031
vn -0.813922 0.580317 0.027629
vn -0.663849 0.423658 0.616294
vn -0.66674 0.564493 0.486628
vn -0.398244 0.858248 0.323746
vn -0.365357 0.659574 0.656869
vn 0.159759 0.700918 0.69512
vn -0.934308 0.304491 0.18535
vn -0.326281 0.945163 0.0143974
vn -0.830315 0.496399 -0.253311
vn -0.593639 0.769077 -0.236881
vn -0.512661 0.768079 -0.38371
vn -0.991324 0.0815535 -0.103083
vn -0.905221 0.366639 -0.214828
vn -0.964153 -0.202661 0.171279
vn -0.761097 -0.567405 0.314299
vn -0.636175 -0.607337 0.475839
vn -0.971226 -0.122486 0.204249
vn -0.986906 0.0948212 0.130481
vn -0.967737 0.0713117 0.241659
vn -0.876613 -0.22939 0.423
vn -0.910376 -0.0466879 0.41114
vn -0.537402 -0.528959 0.656812
vn -0.376734 -0.452327 0.808376
vn -0.14036 -0.630271 0.763582
vn -0.450612 -0.360695 0.816607
vn -0.988547 0.150045 0.0161772
vn -0.957925 -0.0500396 0.282623
vn -0.228921 -0.415562 0.880286
vn -0.950428 0.298215 -0.0880562
vn -0.600695 0.69515 -0.394883
vn -0.915206 -0.377756 0.14035
vn -0.79972 -0.587344 -0.124396
vn -0.961178 0.190337 -0.199771
vn -0.954971 -0.158695 -0.250691
vn -0.227785 -0.820441 -0.524396
vn -0.756894 0.353199 -0.549874
vn -0.324263 0.712563 -0.62218
vn -0.270559 0.364054 -0.891214
vn -0.0340129 0.607128 -0.793876
vn -0.785031 -0.100478 -0.611253
vn -0.343191 -0.491251 -0.800557
vn -0.370547 -0.0957399 -0.923866
vn 0.244253 0.462599 0.852257
vn -0.524102 -0.767077 0.370013
vn 0.0239512 0.92048 0.390055
vn -0.169216 0.965305 -0.198877
vn 0.27278 0.578414 0.768784
vn -0.476919 -0.864996 0.155981
vn 0.0188101 0.882927 -0.469133
vn -0.210926 -0.934711 0.286051
vn -0.0625288 0.836149 -0.544926
vn -0.66512 -0.70298 0.251862
vn -0.128639 -0.878283 -0.460511
vn -0.0679225 -0.973869 0.216716
vn -0.166886 -0.552176 -0.816854
vn -0.145443 -0.987096 -0.0669835
vn 0.0826763 0.38784 0.918011
vn -0.0372846 -0.987367 0.153999
vn 0.190386 0.542495 0.818201
vn 0.131894 0.942489 -0.307114
vn 0.119266 0.983184 0.13829
vn 0.0701519 0.694074 0.716477
vn 0.0439591 -0.991498 0.122471
vn 0.341365 0.777255 -0.528531
vn 0.478831 0.694648 -0.536829
vn 0.340114 -0.836063 0.43049
vn 0.729412 -0.637188 0.248899
vn 0.981422 -0.140717 -0.130423
vn 0.0853589 -0.813453 0.575333
vn 0.552623 -0.674401 0.489684
vn 0.963281 -0.25509 0.0837736
vn 0.202529 -0.641668 0.739759
vn 0.828003 0.404266 -0.388561
vn 0.975971 0.148996 -0.159
vn 0.0532807 -0.685546 0.726077
vn -0.170086 -0.924333 0.341582
vn -0.0959345 -0.967599 -0.233555
vn -0.234144 0.16071 -0.958827
vn -0.138195 -0.0489924 -0.989193
vn 0.252212 0.251009 -0.93455
vn -0.129395 -0.640433 -0.757035
vn 0.727463 0.077303 -0.681779
vn 0.926132 0.110034 -0.360793
vn 0.314329 -0.310866 -0.896973
vn 0.841782 -0.181468 -0.508402
vn 0.324133 0.691142 -0.645957
vn 0.70186 0.435299 -0.563833
vn 0.160049 -0.809821 0.564424
vn 0.271348 0.228911 0.934864
vn 0.358633 -0.369652 0.85717
vn 0.0576903 0.537879 0.841046
vn 0.417448 0.882971 -0.214708
vn 0.266995 0.899885 0.344848
vn 0.266379 0.674531 0.688513
vn 0.624421 0.770826 0.126198
vn 0.370621 0.7811 -0.502516
vn 0.555884 0.612142 -0.562383
vn 0.749401 0.559277 -0.354412
vn 0.755564 0.400001 -0.518771
vn 0.269072 -0.958037 0.0988168
vn 0.798549 -0.58396 -0.145984
vn 0.661187 -0.749988 0.018699
vn 0.918989 0.129561 -0.37239
vn 0.799279 -0.597361 -0.0656689
vn 0.422749 -0.874325 0.238409
vn 0.879566 -0.475617 -0.0123584
vn 0.8921 -0.449348 0.0473656
vn 0.891321 -0.440455 0.107453
vn 0.458479 -0.464526 0.757636
vn 0.714033 -0.395447 0.577735
vn 0.266963 -0.468794 0.841999
vn 0.525962 -0.335405 0.78158
vn 0.546479 -0.553871 0.628162
vn 0.994874 -0.0985206 -0.0228121
vn 0.980234 -0.121878 -0.155843
vn 0.278435 -0.706344 0.650809
vn 0.246654 -0.931635 0.266867
vn 0.609918 -0.734179 0.298298
vn 0.0238667 -0.794244 -0.60713
vn 0.260906 -0.95882 -0.112216
vn 0.863889 -0.390523 -0.318099
vn 0.474755 -0.664438 0.577174
vn 0.293834 0.371202 0.880835
vn 0.611868 -0.0722867 0.78765
vn 0.918944 0.0162924 0.39405
vn 0.795804 -0.38305 0.469008
vn 0.501276 0.372443 0.78103
vn 0.846894 0.450418 0.282656
vn 0.200712 -0.924708 0.323464
vn 0.297864 -0.946485 -0.124267
vn 0.580649 -0.737196 -0.345527
vn 0.291888 -0.953417 -0.0761389
vn 0.647291 -0.722736 0.242211
vn 0.764268 -0.619507 -0.179181
vn 0.9638 -0.258658 0.0646951
vn 0.917908 -0.274186 -0.286823
vn 0.97233 0.131956 -0.192773
vn 0.718935 -0.668354 -0.19088
vn -0.64501 -0.485493 0.590134
vn -0.0163269 0.179851 0.983558
vn 0.189962 0.445812 0.874738
vn -0.67344 -0.661201 0.330593
vn -0.701764 -0.689061 0.180892
vn -0.554318 -0.371527 0.744781
vn -0.7731 -0.511436 0.375167
vn 0.181647 -0.633385 0.752215
vn -0.467952 -0.336263 0.817281
vn -0.17801 -0.950253 -0.255601
vn -0.755895 -0.421835 -0.500677
vn -0.144968 -0.165543 0.975489
vn 0.105276 -0.718044 0.687989
vn 0.0546664 -0.989264 0.135532
vn -0.188739 -0.783367 -0.59221
vn 0.149659 -0.504397 0.850403
vn 0.0844994 -0.713301 0.695745
vn 0.162964 0.653824 -0.738889
vn 0.966389 -0.0465581 -0.252834
vn 0.998702 0.0338543 0.038052
vn 0.997962 0.00296195 0.0637403
vn 0.960016 -0.278777 0.0255578
vn 0.935021 -0.338248 -0.106411
vn 0.663332 -0.498158 -0.558417
vn 0.758275 -0.581529 -0.294692
f 2//2 10//10 1//1
f 8//8 3//3 4//4 
f 3//3 6//6 4//4 
f 4//4 6//6 5//5 
f 6//6 7//7 5//5 
f 5//5 46//46 9//9 
f 46//46 5//5 7//7 
f 142//142 44//44 7//7 
f 45//45 140//140 143//143 
f 49//49 45//45 143//143 
f 8//8 2//2 1//1 
f 4//4 2//2 8//8 
f 4//4 5//5 2//2 
f 5//5 11//11 2//2 
f 2//2 11//11 10//10 
f 5//5 9//9 11//11 
f 9//9 47//47 11//11 
f 9//9 46//46 47//47 
f 1//1 14//14 13//13 
f 13//13 8//8 1//1 
f 144//144 49//49 143//143 
f 49//49 144//144 51//51 
f 10//10 14//14 1//1 
f 10//10 11//11 14//14 
f 14//14 11//11 12//12 
f 11//11 47//47 12//12 
f 50//50 12//12 47//47 
f 15//15 13//13 14//14 
f 16//16 144//144 15//15 
f 51//51 144//144 16//16 
f 14//14 12//12 30//30 
f 17//17 16//16 15//15 
f 14//14 30//30 15//15 
f 16//16 17//17 51//51 
f 17//17 15//15 18//18 
f 18//18 15//15 30//30 
f 19//19 18//18 30//30 
f 18//18 21//21 17//17 
f 18//18 19//19 21//21 
f 70//70 17//17 25//25 
f 25//25 17//17 23//23 
f 20//20 21//21 19//19 
f 19//19 30//30 20//20 
f 22//22 21//21 20//20 
f 17//17 21//21 23//23 
f 23//23 21//21 145//145 
f 23//23 145//145 24//24 
f 25//25 23//23 24//24 
f 24//24 29//29 25//25 
f 12//12 31//31 30//30 
f 12//12 52//52 31//31 
f 32//32 28//28 27//27 
f 148//148 26//26 29//29 
f 146//146 28//28 32//32 
f 29//29 147//147 76//76 
f 32//32 53//53 146//146 
f 153//153 76//76 147//147 
f 22//22 20//20 28//28 
f 20//20 27//27 28//28 
f 27//27 20//20 30//30 
f 27//27 30//30 34//34 
f 24//24 145//145 29//29 
f 29//29 145//145 148//148 
f 76//76 25//25 29//29 
f 30//30 31//31 37//37 
f 31//31 52//52 38//38 
f 35//35 33//33 32//32 
f 32//32 27//27 35//35 
f 53//53 32//32 33//33 
f 54//54 153//153 149//149 
f 54//54 149//149 36//36 
f 27//27 34//34 35//35 
f 34//34 30//30 37//37 
f 37//37 41//41 34//34 
f 35//35 34//34 41//41 
f 33//33 35//35 150//150 
f 41//41 150//150 35//35 
f 37//37 43//43 41//41 
f 31//31 38//38 37//37 
f 38//38 39//39 37//37 
f 38//38 40//40 39//39 
f 40//40 38//38 52//52 
f 150//150 41//41 42//42 
f 54//54 36//36 42//42 
f 42//42 41//41 43//43 
f 54//54 42//42 56//56 
f 42//42 43//43 56//56 
f 56//56 43//43 80//80 
f 37//37 39//39 43//43 
f 43//43 39//39 80//80 
f 39//39 40//40 80//80 
f 44//44 142//142 141//141 
f 141//141 151//151 58//58 
f 59//59 45//45 49//49 
f 59//59 49//49 51//51 
f 44//44 48//48 7//7 
f 44//44 60//60 48//48 
f 7//7 48//48 46//46 
f 48//48 63//63 46//46 
f 62//62 46//46 63//63 
f 47//47 46//46 62//62 
f 60//60 63//63 48//48 
f 47//47 62//62 61//61 
f 47//47 61//61 50//50 
f 50//50 52//52 12//12 
f 66//66 52//52 50//50 
f 66//66 87//87 52//52 
f 51//51 17//17 70//70 
f 70//70 67//67 51//51 
f 67//67 106//106 51//51 
f 76//76 70//70 25//25 
f 76//76 73//73 70//70 
f 55//55 76//76 153//153 
f 153//153 54//54 57//57 
f 153//153 57//57 55//55 
f 87//87 40//40 52//52 
f 54//54 56//56 154//154 
f 82//82 56//56 80//80 
f 40//40 79//79 80//80 
f 58//58 44//44 141//141 
f 155//155 152//152 156//156 
f 156//156 89//89 155//155 
f 51//51 64//64 59//59 
f 64//64 89//89 59//59 
f 58//58 60//60 44//44 
f 60//60 92//92 63//63 
f 97//97 50//50 61//61 
f 62//62 94//94 93//93 
f 61//61 62//62 93//93 
f 97//97 61//61 93//93 
f 97//97 65//65 50//50 
f 101//101 64//64 51//51 
f 65//65 66//66 50//50 
f 98//98 66//66 65//65 
f 106//106 101//101 51//51 
f 106//106 67//67 68//68 
f 74//74 87//87 66//66 
f 68//68 67//67 71//71 
f 68//68 71//71 72//72 
f 68//68 72//72 109//109 
f 109//109 72//72 69//69 
f 69//69 72//72 74//74 
f 67//67 70//70 71//71 
f 71//71 70//70 73//73 
f 72//72 75//75 74//74 
f 71//71 111//111 72//72 
f 71//71 73//73 110//110 
f 71//71 110//110 111//111 
f 112//112 110//110 73//73 
f 112//112 73//73 76//76 
f 55//55 57//57 77//77 
f 76//76 55//55 77//77 
f 117//117 76//76 77//77 
f 118//118 77//77 78//78 
f 117//117 77//77 118//118 
f 78//78 121//121 118//118 
f 86//86 84//84 116//116 
f 84//84 75//75 116//116 
f 87//87 157//157 40//40 
f 74//74 88//88 87//87 
f 75//75 88//88 74//74 
f 75//75 84//84 88//88 
f 154//154 56//56 82//82 
f 78//78 77//77 57//57 
f 82//82 78//78 154//154 
f 81//81 157//157 87//87 
f 88//88 81//81 87//87 
f 80//80 79//79 81//81 
f 83//83 81//81 88//88 
f 80//80 81//81 85//85 
f 83//83 85//85 81//81 
f 84//84 83//83 88//88 
f 85//85 82//82 80//80 
f 86//86 83//83 84//84 
f 85//85 83//83 86//86 
f 85//85 120//120 82//82 
f 85//85 86//86 163//163 
f 89//89 91//91 155//155 
f 130//130 89//89 64//64 
f 91//91 90//90 155//155 
f 123//123 89//89 130//130 
f 123//123 91//91 89//89 
f 92//92 60//60 58//58 
f 90//90 92//92 58//58 
f 92//92 95//95 63//63 
f 128//128 95//95 92//92 
f 63//63 94//94 62//62 
f 95//95 94//94 63//63 
f 94//94 95//95 96//96 
f 96//96 93//93 94//94 
f 129//129 96//96 95//95 
f 101//101 131//131 64//64 
f 98//98 65//65 97//97 
f 97//97 99//99 98//98 
f 93//93 99//99 97//97 
f 98//98 99//99 100//100 
f 96//96 99//99 93//93 
f 99//99 96//96 129//129 
f 100//100 66//66 98//98 
f 101//101 106//106 103//103 
f 103//103 102//102 101//101 
f 66//66 100//100 104//104 
f 105//105 103//103 107//107 
f 103//103 106//106 107//107 
f 103//103 105//105 102//102 
f 102//102 158//158 104//104 
f 158//158 107//107 104//104 
f 74//74 104//104 69//69 
f 66//66 104//104 74//74 
f 69//69 104//104 107//107 
f 106//106 68//68 107//107 
f 108//108 69//69 107//107 
f 107//107 68//68 108//108 
f 108//108 109//109 69//69 
f 109//109 108//108 68//68 
f 72//72 159//159 75//75 
f 112//112 117//117 114//114 
f 111//111 110//110 113//113 
f 75//75 159//159 160//160 
f 113//113 110//110 112//112 
f 112//112 114//114 113//113 
f 160//160 161//161 115//115 
f 160//160 115//115 75//75 
f 115//115 161//161 116//116 
f 115//115 116//116 75//75 
f 117//117 112//112 76//76 
f 117//117 119//119 114//114 
f 161//161 162//162 116//116 
f 118//118 119//119 117//117 
f 162//162 122//122 116//116 
f 121//121 119//119 118//118 
f 162//162 164//164 122//122 
f 122//122 86//86 116//116 
f 121//121 78//78 120//120 
f 164//164 163//163 122//122 
f 120//120 78//78 82//82 
f 163//163 86//86 122//122 
f 90//90 124//124 92//92 
f 92//92 124//124 128//128 
f 90//90 125//125 124//124 
f 90//90 91//91 125//125 
f 125//125 91//91 123//123 
f 125//125 123//123 127//127 
f 126//126 125//125 127//127 
f 127//127 136//136 126//126 
f 129//129 95//95 128//128 
f 124//124 125//125 128//128 
f 125//125 126//126 128//128 
f 126//126 129//129 128//128 
f 129//129 126//126 138//138 
f 136//136 138//138 126//126 
f 133//133 64//64 131//131 
f 64//64 133//133 130//130 
f 133//133 131//131 132//132 
f 132//132 137//137 135//135 
f 130//130 133//133 134//134 
f 134//134 133//133 135//135 
f 133//133 132//132 135//135 
f 138//138 136//136 137//137 
f 123//123 134//134 127//127 
f 127//127 134//134 136//136 
f 130//130 134//134 123//123 
f 136//136 134//134 135//135 
f 136//136 135//135 137//137 
f 138//138 104//104 100//100 
f 99//99 138//138 100//100 
f 129//129 138//138 99//99 
f 101//101 102//102 131//131 
f 137//137 139//139 102//102 
f 102//102 139//139 131//131 
f 132//132 131//131 139//139 
f 132//132 139//139 137//137 
f 137//137 104//104 138//138 
f 104//104 137//137 102//102 
