#
# The license for this database is specified in the Creative Commons Attribution-Share Alike 2.1 Japan. If you use data from this database, please be sure attribute this database as follows: "BodyParts3D, (c)  The Database Center for Life Science licensed under CC Attribution-Share Alike 2.1 Japan".
# http://dbarchive.biosciencedbc.jp/en/bodyparts3d/lic.html
#
#
# Compatibility version : 4.3
# File ID : FJ3186
# Representation ID : BP23915
# Build-up logic : FMA 3.0 is_a
# Concept ID : FMA23955
# English name : Distal phalanx of left middle finger
# Bounds(mm): (271.361000,-195.089000,653.367000)-(280.854000,-178.084000,666.371000)
# Volume(cm3): 0.353500
#
o FJ3186_BP23915_FMA23955_Distal phalanx of left middle finger
v 271.47 -181.916 664.007
v 271.361 -181.326 663.416
v 271.396 -181.712 663.069
v 272.776 -183.019 664.833
v 274.595 -184.111 664.81
v 273.828 -181.174 665.992
v 272.053 -183.395 663.239
v 273.236 -183.916 664.336
v 273.348 -184.044 663.714
v 274.336 -184.303 664.015
v 273.184 -181.043 664.487
v 272.745 -180.265 662.794
v 273.341 -185.052 661.857
v 273.236 -184.858 661.302
v 272.045 -182.712 661.902
v 271.582 -181.307 662.403
v 272.019 -181.303 661.522
v 272.056 -180.921 661.589
v 272.482 -181.621 661.13
v 272.289 -181.12 661.26
v 273.056 -180.654 660.969
v 272.29 -180.059 662.16
v 273.105 -180.018 661.089
v 275.319 -181.444 666.256
v 275.489 -180.918 666.371
v 276.322 -180.831 666.092
v 274.808 -184.155 664.452
v 275.37 -184.087 664.946
v 275.008 -184.174 664.091
v 275.667 -183.502 665.467
v 275.691 -184.157 664.824
v 275.403 -184.133 664.569
v 275.747 -184.217 664.451
v 275.593 -184.467 663.923
v 275.035 -180.895 666.104
v 274.753 -185.168 662.942
v 276.25 -185.919 662.594
v 274.98 -178.443 661.886
v 275.55 -178.084 661.667
v 275.468 -178.25 661.384
v 275.974 -188.239 660.65
v 273.816 -186.186 660.393
v 274.275 -186.943 660.703
v 274.153 -184.31 659.724
v 274.959 -181.279 660.406
v 273.999 -178.541 661.571
v 274.205 -179.048 661.046
v 275.06 -178.678 661.054
v 275.32 -179.582 660.657
v 274.38 -192.237 657.282
v 274.337 -191.822 657.323
v 274.286 -192.237 656.898
v 274.886 -193.375 656.808
v 275.248 -192.433 657.584
v 274.607 -189.436 658.495
v 274.449 -190.76 657.184
v 274.588 -190.729 657.629
v 275.147 -190.721 658.222
v 275.493 -191.118 658.15
v 274.666 -188.485 657.446
v 275.156 -194.194 655.779
v 274.483 -193.096 656.559
v 274.856 -193.556 655.053
v 277.852 -183.705 665.255
v 278.273 -181.478 665.757
v 278.51 -181.011 665.357
v 277.485 -185.527 662.994
v 278.197 -185.663 662.77
v 278.834 -184.495 663.421
v 277.213 -184.187 664.462
v 277.859 -184.201 664.038
v 279.056 -183.651 664.539
v 277.998 -180.774 664.939
v 276.07 -178.613 661.048
v 276.699 -178.171 661.57
v 277.184 -178.359 662.196
v 276.899 -179.461 660.795
v 277.698 -178.452 661.582
v 277.651 -178.8 661.244
v 278.348 -179.031 661.423
v 277.99 -179.709 661.015
v 277.119 -189.276 659.827
v 275.918 -183.304 659.295
v 277.064 -182.422 659.812
v 277.527 -195.049 656.24
v 275.901 -190.469 658.689
v 277.133 -191.358 658.224
v 275.365 -194.464 654.399
v 275.806 -195.012 654.653
v 274.837 -192.171 655.126
v 275.497 -193.267 654.105
v 274.959 -190.976 655.775
v 276.455 -193.484 653.367
v 280.094 -180.978 664.774
v 280.479 -181.892 664.783
v 279.48 -184.799 662.526
v 279.797 -183.64 663.96
v 280.428 -183.031 664.315
v 280.099 -184.142 662.6
v 280.242 -183.751 662.349
v 280.601 -183.339 663.668
v 280.854 -182.878 663.589
v 280.076 -180.072 663.278
v 280.833 -181.236 664.168
v 280.541 -181.575 662.217
v 280.659 -181.116 662.538
v 279.013 -179.11 662.775
v 279.638 -179.114 662.483
v 279.095 -186.833 660.749
v 279.755 -184.735 661.509
v 279.441 -183.143 660.955
v 280.25 -182.496 661.945
v 279.629 -179.889 661.87
v 279.857 -181.521 661.685
v 278.958 -191.939 657.893
v 279.193 -188.957 659.134
v 279.29 -190.877 658.274
v 279.928 -190.907 657.981
v 280.027 -190.564 657.767
v 279.446 -188.844 658.667
v 278.691 -184.606 659.449
v 279.196 -186.229 659.4
v 279.399 -194.615 655.417
v 279.397 -192.765 657.342
v 278.988 -188 657.488
v 278.544 -195.089 654.9
v 279.306 -194.318 654.39
v 279.375 -192.562 654.541
v 276.884 -194.086 653.413
v 276.551 -192.169 653.893
v 277.643 -192.959 653.395
v 280.283 -192.092 656.886
v 280.327 -191.862 656.546
v 280.262 -192.689 655.838
v 280.137 -191.911 655.96
v 271.47 -181.916 664.007
v 271.47 -181.916 664.007
v 271.361 -181.326 663.416
v 274.595 -184.111 664.81
v 273.828 -181.174 665.992
v 272.053 -183.395 663.239
v 273.341 -185.052 661.857
v 272.29 -180.059 662.16
v 275.489 -180.918 666.371
v 275.489 -180.918 666.371
v 276.322 -180.831 666.092
v 275.37 -184.087 664.946
v 275.55 -178.084 661.667
v 275.55 -178.084 661.667
v 273.816 -186.186 660.393
v 274.275 -186.943 660.703
v 273.999 -178.541 661.571
v 274.607 -189.436 658.495
v 278.51 -181.011 665.357
v 276.699 -178.171 661.57
v 277.698 -178.452 661.582
v 275.365 -194.464 654.399
v 275.806 -195.012 654.653
v 275.806 -195.012 654.653
v 275.806 -195.012 654.653
v 274.959 -190.976 655.775
v 280.479 -181.892 664.783
v 280.428 -183.031 664.315
v 280.076 -180.072 663.278
v 280.833 -181.236 664.168
v 280.833 -181.236 664.168
v 280.659 -181.116 662.538
v 279.638 -179.114 662.483
v 279.638 -179.114 662.483
v 279.928 -190.907 657.981
v 278.544 -195.089 654.9
v 278.544 -195.089 654.9
v 279.306 -194.318 654.39
vn -0.967785 -0.25081 0.0220692
vn -0.981884 0.147898 -0.11845
vn -0.970016 -0.193914 -0.146513
vn -0.502646 -0.471453 0.724623
vn -0.241368 -0.559882 0.792637
vn -0.332264 -0.27512 0.90217
vn -0.889703 -0.441828 -0.114967
vn -0.426051 -0.828508 0.363393
vn -0.415445 -0.873184 0.254861
vn -0.0909289 -0.937529 0.335815
vn -0.273499 0.914342 0.298627
vn -0.280508 0.747902 0.601629
vn -0.477334 -0.687455 0.547319
vn -0.890263 -0.364495 -0.273086
vn -0.856737 -0.253475 -0.449169
vn -0.931491 0.145666 -0.333325
vn -0.798516 -0.0101165 -0.601888
vn -0.781033 0.34091 -0.523228
vn -0.520574 0.041227 -0.852821
vn -0.595637 0.157685 -0.787624
vn -0.339802 0.122323 -0.932508
vn -0.781985 0.499949 -0.372224
vn -0.47389 0.364773 -0.801479
vn -0.0293307 -0.286435 0.957651
vn -0.0205925 -0.207689 0.977978
vn 0.00774303 0.994471 0.104722
vn 0.0823488 -0.98752 0.134247
vn -0.0188269 -0.704943 0.709014
vn -0.0602978 -0.92014 0.38692
vn -0.0922764 -0.454665 0.88587
vn -0.0425269 -0.953318 0.298958
vn -0.0809123 -0.988397 0.128549
vn -0.121796 -0.950485 0.285909
vn -0.128408 -0.822511 0.554064
vn -0.147068 0.967866 0.203977
vn -0.285358 -0.742199 0.606392
vn -0.0167085 -0.679103 0.733853
vn -0.20493 0.676747 0.707119
vn -0.197717 0.719844 0.665381
vn -0.0858005 0.776669 -0.624039
vn -0.269048 -0.628109 0.730132
vn -0.887986 -0.435778 0.146898
vn -0.478875 -0.627342 0.614102
vn -0.742582 0.0867065 -0.664119
vn -0.201298 0.237946 -0.95019
vn -0.387504 0.682869 -0.619298
vn -0.291283 0.447174 -0.845689
vn -0.147 0.562086 -0.813911
vn -0.099569 0.287826 -0.952493
vn -0.714343 -0.346473 0.608005
vn -0.907324 -0.00994614 0.420315
vn -0.997263 -0.0525636 -0.0519932
vn -0.479154 -0.627406 0.613818
vn -0.18615 -0.452189 0.87228
vn -0.869189 -0.312195 0.383465
vn -0.992575 0.108223 -0.0555303
vn -0.856489 -0.128178 0.499997
vn -0.503272 -0.361399 0.784925
vn -0.19877 -0.448506 0.871397
vn -0.90741 0.149529 -0.392745
vn -0.702565 -0.681944 0.203358
vn -0.875708 -0.44917 0.177152
vn -0.932612 -0.19707 -0.30232
vn 0.217649 -0.641429 0.735661
vn 0.271339 0.0665728 0.960179
vn 0.295607 0.530365 0.794562
vn 0.0177999 -0.636054 0.771439
vn 0.390927 -0.609234 0.689935
vn 0.361941 -0.670023 0.648126
vn 0.0916712 -0.876173 0.4732
vn 0.211559 -0.747799 0.629317
vn 0.32184 -0.831559 0.452692
vn 0.0629569 0.880947 0.469008
vn 0.0804075 0.55642 -0.827002
vn 0.0891558 0.747563 -0.65818
vn 0.0663482 0.86476 0.497784
vn 0.158616 0.345601 -0.924879
vn 0.275779 0.957346 0.0862216
vn 0.266392 0.48628 -0.832206
vn 0.459052 0.496789 -0.736527
vn 0.384826 0.271967 -0.882011
vn 0.0984878 -0.610269 0.786048
vn -0.226192 0.417952 -0.87986
vn 0.243045 0.402152 -0.882725
vn -0.0163147 -0.795529 0.605696
vn -0.184331 -0.593668 0.783314
vn -0.0321592 -0.511986 0.858392
vn -0.836145 -0.548175 -0.0191239
vn -0.0287745 -0.999554 0.00795608
vn -0.821223 0.226611 -0.52368
vn -0.692425 0.118751 -0.71165
vn -0.908624 0.209603 -0.361205
vn -0.365544 0.0404051 -0.929917
vn 0.398775 0.630521 0.665899
vn 0.484974 -0.0413205 0.873552
vn 0.625653 -0.663686 0.409975
vn 0.372765 -0.772402 0.514238
vn 0.429713 -0.644888 0.632033
vn 0.838472 -0.544796 0.0126869
vn 0.924743 -0.251201 -0.285917
vn 0.697849 -0.641056 0.319459
vn 0.969482 -0.240983 0.0450694
vn 0.337411 0.745169 0.575219
vn 0.911797 -0.125663 0.390942
vn 0.822386 0.020647 -0.568555
vn 0.963207 0.250918 -0.0962964
vn 0.237017 0.7575 0.608289
vn 0.279136 0.866727 0.413361
vn 0.887257 -0.328897 0.323422
vn 0.945792 -0.28058 -0.163562
vn 0.729373 0.196977 -0.655145
vn 0.805124 -0.0368972 -0.591958
vn 0.617824 0.298443 -0.727479
vn 0.573412 0.159103 -0.803669
vn 0.145614 -0.445572 0.883324
vn 0.632302 -0.357417 0.687348
vn 0.255641 -0.427033 0.867346
vn 0.435335 -0.398204 0.807414
vn 0.9736 0.164399 0.158356
vn 0.97711 0.072867 0.199866
vn 0.670855 0.387506 -0.632291
vn 0.960254 0.0988873 -0.261024
vn 0.702316 -0.67684 0.220544
vn 0.455268 -0.51649 0.725238
vn 0.780638 0.408252 -0.473218
vn 0.155539 -0.976814 0.147114
vn 0.524859 -0.233184 -0.818626
vn 0.682773 0.25818 -0.683494
vn -0.0236161 -0.503056 -0.863931
vn -0.397114 0.429295 -0.811176
vn 0.254592 0.256842 -0.932317
vn 0.899821 -0.262147 0.348713
vn 0.975933 0.183563 -0.117726
vn 0.966678 -0.0894935 -0.239843
vn 0.841438 0.31056 -0.442193
vn -0.691458 -0.341953 0.63636
vn -0.500854 0.716241 0.485947
vn -0.417283 0.72119 0.552956
vn -0.0236622 -0.981572 0.189624
vn -0.330413 0.887258 0.321869
vn -0.579768 -0.731248 0.359369
vn -0.86665 -0.498366 0.0234574
vn -0.403806 0.7445 0.531658
vn -0.146334 0.932555 0.330042
vn 0.267023 0.337737 0.90257
vn 0.290163 0.432865 0.853483
vn -0.0832142 -0.989799 0.115643
vn -0.103791 0.870277 -0.481504
vn 0.0924419 0.971131 0.219906
vn -0.94014 -0.0353245 -0.338954
vn -0.872045 -0.443642 0.206687
vn -0.331537 0.725578 0.603009
vn -0.863422 -0.394066 0.314984
vn 0.15007 0.927351 0.342782
vn 0.18175 0.971698 0.150896
vn 0.309037 0.660913 -0.683878
vn -0.578685 -0.300523 -0.758162
vn -0.780067 -0.62568 0.00453213
vn -0.151454 -0.724468 -0.672464
vn -0.378772 -0.838814 0.391054
vn -0.531828 0.435647 -0.726203
vn 0.887865 -0.176078 0.425079
vn 0.847477 -0.307407 0.432764
vn 0.873943 0.486021 0.00254247
vn 0.645421 0.508086 0.570334
vn 0.953331 0.291076 -0.0802181
vn 0.755476 0.323626 -0.569668
vn 0.62113 0.537032 -0.570784
vn 0.888719 0.454726 0.0583393
vn 0.897121 0.0128726 0.441598
vn 0.124794 -0.752492 -0.64667
vn 0.587453 -0.761635 -0.273516
vn 0.775516 -0.584275 -0.23916
f 3//3 7//7 1//1
f 1//1 2//2 3//3 
f 2//2 16//16 3//3 
f 8//8 5//5 4//4 
f 4//4 5//5 30//30 
f 10//10 139//139 8//8 
f 30//30 5//5 28//28 
f 27//27 139//139 10//10 
f 4//4 30//30 6//6 
f 6//6 136//136 4//4 
f 137//137 140//140 11//11 
f 24//24 25//25 6//6 
f 24//24 6//6 30//30 
f 35//35 11//11 140//140 
f 144//144 35//35 140//140 
f 26//26 11//11 35//35 
f 43//43 36//36 13//13 
f 141//141 8//8 4//4 
f 136//136 141//141 4//4 
f 15//15 7//7 3//3 
f 9//9 10//10 8//8 
f 8//8 141//141 9//9 
f 141//141 36//36 9//9 
f 10//10 9//9 36//36 
f 36//36 141//141 13//13 
f 138//138 137//137 11//11 
f 2//2 22//22 16//16 
f 143//143 138//138 12//12 
f 12//12 138//138 11//11 
f 7//7 14//14 142//142 
f 14//14 42//42 142//142 
f 150//150 14//14 44//44 
f 142//142 42//42 151//151 
f 7//7 15//15 14//14 
f 44//44 14//14 15//15 
f 44//44 15//15 19//19 
f 3//3 16//16 15//15 
f 15//15 16//16 17//17 
f 17//17 16//16 18//18 
f 16//16 22//22 18//18 
f 19//19 15//15 17//17 
f 17//17 18//18 20//20 
f 19//19 17//17 20//20 
f 20//20 18//18 23//23 
f 18//18 22//22 23//23 
f 20//20 21//21 19//19 
f 21//21 20//20 23//23 
f 45//45 19//19 21//21 
f 83//83 19//19 45//45 
f 22//22 46//46 23//23 
f 64//64 65//65 30//30 
f 144//144 26//26 35//35 
f 25//25 24//24 65//65 
f 145//145 65//65 146//146 
f 30//30 65//65 24//24 
f 32//32 147//147 139//139 
f 29//29 32//32 27//27 
f 27//27 32//32 139//139 
f 29//29 27//27 10//10 
f 29//29 10//10 36//36 
f 64//64 30//30 28//28 
f 64//64 28//28 31//31 
f 31//31 147//147 32//32 
f 33//33 31//31 32//32 
f 34//34 33//33 29//29 
f 33//33 32//32 29//29 
f 34//34 29//29 36//36 
f 33//33 34//34 70//70 
f 70//70 34//34 36//36 
f 70//70 31//31 33//33 
f 64//64 31//31 70//70 
f 11//11 26//26 73//73 
f 73//73 12//12 11//11 
f 37//37 36//36 41//41 
f 37//37 70//70 36//36 
f 41//41 82//82 67//67 
f 67//67 37//37 41//41 
f 12//12 152//152 143//143 
f 12//12 38//38 152//152 
f 12//12 76//76 38//38 
f 39//39 152//152 38//38 
f 40//40 46//46 148//148 
f 46//46 40//40 48//48 
f 57//57 58//58 55//55 
f 151//151 42//42 153//153 
f 55//55 41//41 43//43 
f 36//36 43//43 41//41 
f 58//58 41//41 55//55 
f 86//86 41//41 58//58 
f 150//150 44//44 60//60 
f 55//55 150//150 60//60 
f 44//44 19//19 83//83 
f 44//44 83//83 130//130 
f 23//23 45//45 21//21 
f 84//84 49//49 77//77 
f 45//45 49//49 84//84 
f 47//47 23//23 46//46 
f 48//48 47//47 46//46 
f 23//23 47//47 49//49 
f 49//49 47//47 48//48 
f 49//49 45//45 23//23 
f 48//48 74//74 49//49 
f 40//40 74//74 48//48 
f 54//54 50//50 53//53 
f 58//58 51//51 50//50 
f 53//53 50//50 62//62 
f 50//50 52//52 62//62 
f 50//50 51//51 52//52 
f 51//51 56//56 52//52 
f 62//62 52//52 63//63 
f 52//52 90//90 63//63 
f 52//52 56//56 90//90 
f 50//50 54//54 58//58 
f 57//57 55//55 56//56 
f 58//58 57//57 51//51 
f 57//57 56//56 51//51 
f 60//60 56//56 55//55 
f 56//56 60//60 92//92 
f 58//58 54//54 59//59 
f 58//58 59//59 86//86 
f 62//62 61//61 53//53 
f 62//62 63//63 61//61 
f 90//90 56//56 92//92 
f 130//130 161//161 60//60 
f 64//64 70//70 72//72 
f 64//64 72//72 98//98 
f 65//65 66//66 146//146 
f 154//154 73//73 26//26 
f 66//66 65//65 94//94 
f 94//94 73//73 154//154 
f 71//71 70//70 37//37 
f 71//71 37//37 67//67 
f 67//67 68//68 71//71 
f 67//67 82//82 68//68 
f 68//68 69//69 71//71 
f 96//96 69//69 68//68 
f 68//68 109//109 96//96 
f 69//69 97//97 71//71 
f 72//72 70//70 71//71 
f 97//97 72//72 71//71 
f 98//98 72//72 97//97 
f 69//69 96//96 97//97 
f 73//73 76//76 12//12 
f 107//107 76//76 73//73 
f 107//107 73//73 103//103 
f 108//108 107//107 103//103 
f 77//77 81//81 84//84 
f 114//114 81//81 113//113 
f 81//81 114//114 84//84 
f 38//38 76//76 39//39 
f 74//74 40//40 75//75 
f 75//75 40//40 148//148 
f 76//76 155//155 149//149 
f 76//76 78//78 155//155 
f 156//156 74//74 75//75 
f 107//107 108//108 76//76 
f 74//74 79//79 77//77 
f 156//156 79//79 74//74 
f 77//77 79//79 81//81 
f 108//108 78//78 76//76 
f 80//80 79//79 156//156 
f 80//80 81//81 79//79 
f 80//80 156//156 168//168 
f 87//87 115//115 117//117 
f 87//87 54//54 115//115 
f 41//41 86//86 82//82 
f 82//82 86//86 87//87 
f 82//82 116//116 68//68 
f 117//117 116//116 82//82 
f 87//87 117//117 82//82 
f 83//83 84//84 130//130 
f 111//111 84//84 114//114 
f 84//84 83//83 45//45 
f 74//74 77//77 49//49 
f 89//89 126//126 85//85 
f 61//61 85//85 53//53 
f 59//59 54//54 87//87 
f 85//85 54//54 53//53 
f 59//59 87//87 86//86 
f 60//60 44//44 130//130 
f 84//84 131//131 130//130 
f 63//63 88//88 61//61 
f 157//157 63//63 91//91 
f 61//61 88//88 158//158 
f 171//171 159//159 129//129 
f 129//129 159//159 157//157 
f 85//85 61//61 160//160 
f 91//91 63//63 90//90 
f 90//90 161//161 130//130 
f 91//91 90//90 130//130 
f 129//129 157//157 93//93 
f 157//157 91//91 93//93 
f 93//93 91//91 130//130 
f 95//95 65//65 64//64 
f 64//64 98//98 95//95 
f 163//163 102//102 162//162 
f 162//162 102//102 104//104 
f 95//95 94//94 65//65 
f 95//95 165//165 94//94 
f 99//99 110//110 100//100 
f 101//101 98//98 97//97 
f 101//101 97//97 96//96 
f 163//163 101//101 102//102 
f 96//96 99//99 101//101 
f 101//101 99//99 102//102 
f 102//102 99//99 100//100 
f 100//100 105//105 102//102 
f 110//110 112//112 100//100 
f 100//100 112//112 105//105 
f 103//103 73//73 94//94 
f 165//165 103//103 94//94 
f 164//164 106//106 169//169 
f 102//102 106//106 166//166 
f 166//166 106//106 164//164 
f 113//113 168//168 167//167 
f 114//114 113//113 105//105 
f 106//106 102//102 105//105 
f 113//113 167//167 105//105 
f 109//109 110//110 96//96 
f 96//96 110//110 99//99 
f 109//109 122//122 110//110 
f 112//112 110//110 111//111 
f 111//111 114//114 112//112 
f 110//110 122//122 111//111 
f 114//114 105//105 112//112 
f 113//113 81//81 80//80 
f 168//168 113//113 80//80 
f 124//124 115//115 85//85 
f 124//124 118//118 115//115 
f 117//117 115//115 118//118 
f 85//85 123//123 124//124 
f 119//119 170//170 132//132 
f 116//116 120//120 109//109 
f 116//116 117//117 118//118 
f 116//116 170//170 120//120 
f 119//119 120//120 170//170 
f 120//120 119//119 125//125 
f 122//122 109//109 120//120 
f 68//68 116//116 109//109 
f 120//120 125//125 122//122 
f 125//125 121//121 122//122 
f 121//121 125//125 84//84 
f 125//125 131//131 84//84 
f 84//84 111//111 121//121 
f 121//121 111//111 122//122 
f 126//126 123//123 85//85 
f 85//85 115//115 54//54 
f 124//124 132//132 118//118 
f 123//123 132//132 124//124 
f 131//131 125//125 128//128 
f 131//131 127//127 129//129 
f 127//127 171//171 129//129 
f 172//172 173//173 123//123 
f 127//127 131//131 128//128 
f 131//131 129//129 93//93 
f 131//131 93//93 130//130 
f 132//132 133//133 119//119 
f 119//119 133//133 125//125 
f 132//132 134//134 133//133 
f 133//133 134//134 135//135 
f 133//133 135//135 125//125 
f 132//132 123//123 134//134 
f 123//123 173//173 134//134 
f 134//134 127//127 128//128 
f 134//134 128//128 135//135 
f 135//135 128//128 125//125 
