#
# The license for this database is specified in the Creative Commons Attribution-Share Alike 2.1 Japan. If you use data from this database, please be sure attribute this database as follows: "BodyParts3D, (c)  The Database Center for Life Science licensed under CC Attribution-Share Alike 2.1 Japan".
# http://dbarchive.biosciencedbc.jp/en/bodyparts3d/lic.html
#
#
# Compatibility version : 4.3
# File ID : FJ3297
# Representation ID : BP20201
# Build-up logic : FMA 3.0 is_a
# Concept ID : FMA23944
# English name : Middle phalanx of left little finger
# Bounds(mm): (218.921000,-171.479000,687.466000)-(230.299000,-154.912000,707.061000)
# Volume(cm3): 0.549700
#
o FJ3297_BP20201_FMA23944_Middle phalanx of left little finger
v 220.777 -158.664 704.956
v 221.242 -157.646 704.74
v 220.672 -159.8 703.173
v 220.645 -159.396 703.149
v 220.887 -158.358 703.948
v 220.535 -160.553 700.934
v 220.79 -162.934 695.085
v 219.131 -169.2 689.644
v 219.656 -168.158 689.356
v 221.265 -159.38 705.846
v 221.023 -160.081 705.074
v 221.439 -160.502 705.605
v 221.422 -160.634 705.233
v 222.006 -161.052 705.287
v 221.251 -158.406 705.424
v 221.441 -157.972 705.195
v 221.688 -157.433 704.83
v 221.881 -157.188 704.472
v 222.465 -157.541 704.723
v 222.237 -158.001 705.097
v 224.306 -155.774 703.957
v 221.629 -160.974 703.299
v 221.676 -157.202 703.73
v 223.264 -155.847 703.742
v 223.964 -155.868 701.802
v 220.734 -161.623 700.525
v 220.364 -164.53 695.285
v 220.401 -166.05 694.584
v 220.486 -165.323 695.291
v 220.968 -165.674 695.385
v 220.319 -166.507 693.926
v 220.655 -166.494 694.273
v 220.381 -165.163 693.195
v 220.177 -166.298 693.629
v 221.043 -164.159 692.865
v 223.7 -162.148 693.635
v 218.921 -170.278 691.013
v 219.158 -170.518 691.482
v 219.082 -170.945 690.92
v 219.362 -171.05 691.004
v 219.799 -170.657 691.525
v 219.81 -167.265 691.543
v 219.174 -168.977 691.605
v 219.736 -167.775 692.265
v 219.907 -168.142 692.483
v 219.627 -169.064 692.131
v 220.894 -169.291 692.231
v 220.45 -166.969 690.241
v 219.156 -170.875 689.253
v 219.248 -170.602 688.804
v 219.535 -170.802 688.531
v 219.367 -171.314 690.17
v 219.725 -171.183 688.858
v 220.067 -171.405 690.259
v 220.529 -168.502 688.348
v 220.143 -169.338 688.122
v 221.295 -167.218 689.413
v 220.84 -170.618 688.253
v 220.959 -169.875 687.941
v 222.457 -160.635 706.514
v 223.164 -159.695 706.896
v 223.083 -161.31 705.996
v 223.603 -160.9 706.947
v 225.434 -158.924 705.182
v 225.942 -154.912 703.524
v 226.868 -155.434 701.634
v 222.666 -166.562 694.895
v 222.447 -170.634 691.042
v 221.278 -170.973 688.644
v 221.857 -171.246 689.3
v 222.525 -171.226 690.009
v 223.415 -166.626 689.454
v 223.431 -167.8 688.199
v 222.723 -170.696 688.191
v 224.136 -168.654 687.617
v 224.792 -160.959 707.061
v 225.08 -161.516 706.4
v 225.414 -160.314 707.008
v 225.479 -159.999 706.812
v 226.667 -161.165 706.686
v 227.407 -155.856 703.064
v 228.391 -155.567 702.372
v 228.224 -156.501 700.922
v 229.321 -156.971 701.5
v 225.586 -162.917 700.691
v 228.501 -159.117 699.682
v 226.72 -164.077 695.809
v 226.667 -163.875 694.348
v 224.61 -170.664 691.124
v 224.955 -169.637 691.615
v 226.352 -167.711 691.306
v 225.161 -171.479 689.279
v 225.683 -171.422 689.563
v 225.425 -166.692 690.02
v 225.248 -167.806 688.326
v 226.191 -168.276 689.306
v 225.265 -170.784 687.896
v 226.029 -171.254 688.408
v 225.106 -168.54 687.615
v 224.82 -169.165 687.466
v 225.739 -168.657 687.928
v 225.488 -169.334 687.521
v 225.144 -169.907 687.511
v 225.802 -169.51 687.749
v 225.581 -170.042 687.584
v 228.442 -161.524 705.866
v 227.551 -160.372 706.183
v 228.428 -161.124 706.063
v 228.813 -160.819 705.689
v 228.839 -161.304 705.783
v 228.766 -161.953 704.464
v 228.97 -161.975 703.434
v 228.968 -161.452 705.499
v 229.678 -160.948 704.835
v 230.122 -161.103 703.674
v 228.995 -158.589 703.439
v 230.071 -158.644 702.711
v 229.494 -156.739 702.45
v 229.514 -156.652 702.076
v 230.299 -160.553 702.307
v 230.131 -159.193 701.838
v 229.902 -157.534 702.071
v 228.767 -161.2 699.981
v 225.843 -171.163 690.4
v 226.381 -170.741 690.669
v 226.343 -171.132 690.119
v 226.766 -170.569 689.683
v 226.585 -170.511 688.994
v 226.19 -171.33 688.755
v 221.242 -157.646 704.74
v 221.441 -157.972 705.195
v 221.688 -157.433 704.83
v 221.881 -157.188 704.472
v 222.465 -157.541 704.723
v 224.306 -155.774 703.957
v 223.264 -155.847 703.742
v 220.734 -161.623 700.525
v 220.401 -166.05 694.584
v 220.486 -165.323 695.291
v 220.319 -166.507 693.926
v 219.158 -170.518 691.482
v 219.082 -170.945 690.92
v 219.736 -167.775 692.265
v 219.907 -168.142 692.483
v 219.627 -169.064 692.131
v 219.248 -170.602 688.804
v 219.535 -170.802 688.531
v 219.367 -171.314 690.17
v 219.725 -171.183 688.858
v 222.457 -160.635 706.514
v 223.603 -160.9 706.947
v 225.942 -154.912 703.524
v 225.942 -154.912 703.524
v 222.666 -166.562 694.895
v 222.666 -166.562 694.895
v 224.792 -160.959 707.061
v 226.667 -161.165 706.686
v 226.667 -161.165 706.686
v 228.391 -155.567 702.372
v 228.391 -155.567 702.372
v 225.586 -162.917 700.691
v 226.72 -164.077 695.809
v 226.667 -163.875 694.348
v 226.352 -167.711 691.306
v 226.352 -167.711 691.306
v 226.352 -167.711 691.306
v 225.683 -171.422 689.563
v 225.683 -171.422 689.563
v 225.425 -166.692 690.02
v 226.029 -171.254 688.408
v 226.029 -171.254 688.408
v 228.428 -161.124 706.063
v 228.839 -161.304 705.783
v 229.678 -160.948 704.835
v 230.122 -161.103 703.674
v 229.494 -156.739 702.45
v 229.514 -156.652 702.076
v 230.299 -160.553 702.307
v 230.299 -160.553 702.307
v 230.131 -159.193 701.838
v 229.902 -157.534 702.071
v 228.767 -161.2 699.981
v 228.767 -161.2 699.981
v 226.381 -170.741 690.669
v 226.343 -171.132 690.119
v 226.343 -171.132 690.119
v 226.766 -170.569 689.683
v 226.766 -170.569 689.683
v 226.766 -170.569 689.683
v 226.766 -170.569 689.683
v 226.19 -171.33 688.755
v 226.19 -171.33 688.755
vn -0.927389 0.210086 0.309539
vn -0.542305 0.675315 0.499854
vn -0.943054 -0.294492 0.15467
vn -0.993797 0.110871 0.00869661
vn -0.905777 0.411064 -0.10293
vn -0.987292 0.15062 -0.0506697
vn -0.838268 0.47113 -0.274488
vn -0.946602 0.225603 -0.230319
vn -0.723262 0.523809 -0.450017
vn -0.719458 0.00165337 0.694534
vn -0.891552 -0.390448 0.229535
vn -0.714768 -0.534064 0.451532
vn -0.712416 -0.683796 0.157757
vn -0.48417 -0.840631 0.242733
vn -0.39711 0.503588 0.767269
vn -0.616831 0.544744 0.568131
vn -0.527633 0.777266 0.342727
vn -0.641705 0.74939 0.163186
vn 0.091744 0.616814 0.781744
vn 0.109118 0.622523 0.774957
vn -0.198744 0.635788 0.745838
vn -0.6241 -0.767021 0.148923
vn -0.720168 0.687724 -0.091617
vn -0.551563 0.831194 -0.0699586
vn -0.435402 0.809396 -0.394085
vn -0.925688 -0.306531 0.221678
vn -0.995923 -0.00782036 0.0898695
vn -0.395007 -0.677448 0.62051
vn -0.966801 -0.147879 0.208392
vn -0.405082 -0.706979 0.579733
vn -0.528093 -0.571471 0.628123
vn -0.418176 -0.611502 0.67171
vn -0.940995 0.307557 -0.141196
vn -0.976999 -0.00478709 0.213192
vn -0.630085 0.614837 -0.474309
vn 0.0471436 0.723413 -0.688805
vn -0.990732 -0.064608 0.119481
vn -0.870655 -0.113382 0.478648
vn -0.933655 -0.350758 0.0725089
vn -0.223017 -0.841002 0.492929
vn -0.015638 -0.6398 0.768382
vn -0.912614 0.400334 -0.0828751
vn -0.932275 0.144399 0.331681
vn -0.815053 -0.0503018 0.577199
vn -0.871159 -0.0816167 0.484171
vn -0.768198 -0.0152184 0.640031
vn -0.152868 -0.545582 0.823997
vn -0.571671 0.663806 -0.482238
vn -0.884919 -0.403453 -0.232687
vn -0.848095 0.124899 -0.514912
vn -0.700108 -0.573369 -0.425555
vn -0.23422 -0.960318 0.151429
vn -0.612837 -0.722374 -0.320323
vn 0.0219764 -0.973153 0.229105
vn -0.326704 0.579027 -0.746989
vn -0.530143 0.204981 -0.822759
vn -0.282833 0.697311 -0.658606
vn -0.0616815 -0.597767 -0.799294
vn -0.140314 -0.217662 -0.965886
vn -0.514464 -0.116282 0.849591
vn -0.124443 0.395907 0.90982
vn -0.304809 -0.878438 0.36802
vn -0.235574 -0.0447389 0.970826
vn 0.210373 0.750397 0.626616
vn -0.110055 0.968837 -0.221908
vn 0.0823562 0.869954 -0.486208
vn -0.197135 -0.720997 0.664305
vn 0.0618116 -0.777395 0.625969
vn 0.0150203 -0.837716 -0.5459
vn -0.0103701 -0.965688 -0.259497
vn -0.000764862 -0.951267 0.308366
vn 0.0192132 0.73225 -0.680765
vn -0.0859978 0.645715 -0.758721
vn -0.0656598 -0.730214 -0.680056
vn -0.120119 0.301704 -0.945805
vn 0.0231758 0.00412945 0.999723
vn -0.0347192 -0.893888 0.446945
vn 0.198007 0.237743 0.950932
vn 0.22232 0.668427 0.709774
vn 0.0668091 -0.794332 0.603799
vn 0.352085 0.251204 0.901628
vn 0.354372 0.835282 -0.420386
vn 0.499098 0.600109 -0.625116
vn 0.712842 0.365235 -0.598715
vn -0.167447 -0.956778 0.237776
vn 0.781917 0.210997 -0.586589
vn 0.431554 -0.807985 0.40115
vn 0.698779 0.416435 -0.581627
vn 0.0584519 -0.688719 0.722669
vn 0.290245 -0.448757 0.845207
vn 0.328383 -0.747978 0.576796
vn -0.00143468 -0.999819 -0.0189864
vn 0.0458318 -0.993026 0.108624
vn 0.311417 0.71711 -0.623517
vn 0.37942 0.694629 -0.611172
vn 0.871101 0.387282 -0.301987
vn -0.0011107 -0.533243 -0.845961
vn -0.0433255 -0.937727 -0.344662
vn 0.173909 0.443116 -0.879434
vn -0.0148846 0.0794425 -0.996728
vn 0.712453 0.360743 -0.601893
vn 0.356307 0.106044 -0.928332
vn 0.0103365 -0.205573 -0.978587
vn 0.756559 0.0225736 -0.653536
vn 0.388625 -0.227206 -0.892944
vn 0.299361 -0.730741 0.613515
vn 0.36636 0.50924 0.778752
vn 0.466633 0.274069 0.840916
vn 0.573643 0.412947 0.707395
vn 0.564424 -0.488335 0.665548
vn 0.379687 -0.892592 0.24314
vn 0.501952 -0.858739 -0.103011
vn 0.598351 -0.674958 0.43175
vn 0.787314 0.26258 0.557843
vn 0.628012 -0.77369 0.083695
vn 0.381154 0.531416 0.756518
vn 0.87775 0.289684 0.381626
vn 0.457889 0.358782 0.813396
vn 0.642575 0.569127 -0.513022
vn 0.538327 -0.813495 -0.220066
vn 0.806644 0.0817915 -0.585351
vn 0.796169 0.275982 -0.538469
vn 0.861651 6.75089e-05 -0.507502
vn 0.132659 -0.867266 0.479845
vn 0.914159 -0.260349 0.310696
vn 0.277136 -0.874956 0.397049
vn 0.959789 0.209654 -0.186681
vn 0.919464 0.00158215 -0.393172
vn -0.0935898 -0.980966 -0.170135
vn -0.873336 0.485 -0.0453868
vn 0.144943 0.501652 0.85284
vn 0.192461 0.635138 0.748037
vn 0.0712126 0.653597 0.753485
vn 0.252668 0.192423 0.948226
vn 0.277552 0.041614 0.959809
vn -0.150801 0.599838 0.785782
vn -0.328785 -0.796758 0.507027
vn -0.947207 -0.17524 0.268496
vn -0.554921 -0.60929 0.566417
vn -0.929989 -0.166752 0.327589
vn -0.265563 -0.60144 0.753489
vn -0.428453 -0.792332 0.434325
vn -0.950609 0.291057 0.107838
vn -0.28954 -0.435157 0.852529
vn -0.137123 -0.349573 0.92682
vn -0.756372 -0.478989 -0.4455
vn -0.314986 -0.296876 -0.90147
vn -0.729466 -0.667097 -0.151201
vn -0.0216057 -0.894674 -0.446197
vn -0.445762 -0.76274 0.468534
vn -0.221585 -0.808258 0.545545
vn -0.190624 0.704944 0.683167
vn 0.384218 0.152431 0.910572
vn 0.392551 -0.804479 0.445776
vn 0.60644 -0.323323 0.726425
vn -0.024691 -0.769564 0.638092
vn 0.291664 0.104572 0.950787
vn 0.312801 -0.409482 0.857018
vn 0.448238 0.394389 0.80221
vn 0.707586 0.679255 0.194768
vn 0.503583 -0.862616 0.0479382
vn 0.960067 -0.270256 -0.0723445
vn 0.97533 -0.0943534 -0.199573
vn 0.947735 0.240901 -0.209201
vn 0.529352 -0.25404 0.809475
vn 0.933574 -0.0650801 0.352426
vn 0.604436 -0.718928 -0.343219
vn 0.576517 -0.769822 0.273865
vn 0.822067 0.441997 -0.358949
vn 0.273871 -0.469243 -0.839527
vn 0.846662 -0.209986 -0.488948
vn 0.353386 -0.40198 0.844707
vn 0.657265 0.17756 0.732445
vn 0.709967 -0.600976 0.367116
vn 0.961221 0.117703 0.2494
vn 0.853799 0.472645 0.218254
vn 0.819716 0.546927 0.170105
vn 0.842507 -0.0795844 -0.532774
vn 0.991753 0.102257 0.0772608
vn 0.991443 0.129876 -0.0131476
vn 0.946512 0.288245 0.145013
vn 0.872494 -0.4787 -0.0979799
vn 0.492845 -0.860809 0.126931
vn 0.29887 -0.548421 0.780968
vn 0.85795 -0.44514 0.256462
vn 0.604436 -0.718928 -0.343219
vn 0.914159 -0.260349 0.310696
vn 0.604436 -0.718928 -0.343219
vn 0.576517 -0.769822 0.273865
vn 0.887958 -0.289316 -0.35753
vn 0.576517 -0.769822 0.273865
vn 0.887526 -0.133788 -0.440907
f 3//3 1//1 4//4
f 1//1 5//5 4//4 
f 3//3 11//11 1//1 
f 1//1 16//16 2//2 
f 1//1 130//130 5//5 
f 130//130 23//23 5//5 
f 3//3 4//4 6//6 
f 26//26 3//3 6//6 
f 6//6 4//4 5//5 
f 5//5 23//23 6//6 
f 6//6 23//23 7//7 
f 27//27 26//26 6//6 
f 6//6 7//7 27//27 
f 27//27 7//7 33//33 
f 7//7 35//35 33//33 
f 37//37 43//43 8//8 
f 43//43 42//42 8//8 
f 42//42 9//9 8//8 
f 48//48 55//55 9//9 
f 8//8 9//9 56//56 
f 9//9 55//55 56//56 
f 50//50 8//8 56//56 
f 10//10 61//61 15//15 
f 1//1 11//11 10//10 
f 15//15 61//61 20//20 
f 10//10 11//11 12//12 
f 61//61 10//10 60//60 
f 12//12 11//11 13//13 
f 60//60 10//10 12//12 
f 14//14 12//12 13//13 
f 14//14 150//150 12//12 
f 150//150 14//14 62//62 
f 15//15 1//1 10//10 
f 17//17 2//2 16//16 
f 17//17 23//23 2//2 
f 18//18 23//23 17//17 
f 24//24 23//23 18//18 
f 15//15 16//16 1//1 
f 19//19 132//132 131//131 
f 19//19 133//133 132//132 
f 133//133 19//19 136//136 
f 131//131 15//15 20//20 
f 20//20 19//19 131//131 
f 64//64 20//20 61//61 
f 19//19 21//21 136//136 
f 3//3 26//26 22//22 
f 22//22 11//11 3//3 
f 11//11 22//22 13//13 
f 14//14 13//13 22//22 
f 14//14 22//22 85//85 
f 24//24 25//25 23//23 
f 25//25 24//24 65//65 
f 65//65 66//66 25//25 
f 36//36 25//25 66//66 
f 23//23 25//25 7//7 
f 32//32 28//28 31//31 
f 29//29 26//26 27//27 
f 27//27 33//33 34//34 
f 138//138 29//29 27//27 
f 27//27 34//34 138//138 
f 139//139 28//28 30//30 
f 30//30 137//137 139//139 
f 67//67 30//30 28//28 
f 67//67 28//28 32//32 
f 30//30 67//67 137//137 
f 7//7 25//25 35//35 
f 25//25 36//36 35//35 
f 34//34 140//140 138//138 
f 45//45 140//140 34//34 
f 44//44 45//45 34//34 
f 32//32 31//31 47//47 
f 47//47 31//31 144//144 
f 32//32 47//47 67//67 
f 42//42 34//34 33//33 
f 42//42 33//33 35//35 
f 57//57 35//35 36//36 
f 38//38 43//43 37//37 
f 37//37 39//39 38//38 
f 44//44 43//43 46//46 
f 43//43 38//38 46//46 
f 49//49 39//39 37//37 
f 37//37 8//8 49//49 
f 141//141 142//142 40//40 
f 40//40 142//142 52//52 
f 47//47 145//145 41//41 
f 145//145 141//141 41//41 
f 41//41 141//141 40//40 
f 54//54 41//41 40//40 
f 54//54 68//68 41//41 
f 68//68 47//47 41//41 
f 34//34 42//42 143//143 
f 143//143 42//42 43//43 
f 48//48 9//9 42//42 
f 44//44 46//46 45//45 
f 144//144 145//145 47//47 
f 48//48 42//42 35//35 
f 48//48 35//35 57//57 
f 57//57 36//36 72//72 
f 8//8 50//50 49//49 
f 49//49 146//146 51//51 
f 148//148 39//39 49//49 
f 53//53 148//148 49//49 
f 49//49 51//51 53//53 
f 40//40 52//52 54//54 
f 149//149 54//54 52//52 
f 149//149 70//70 54//54 
f 147//147 58//58 149//149 
f 69//69 70//70 149//149 
f 58//58 69//69 149//149 
f 147//147 50//50 56//56 
f 147//147 56//56 59//59 
f 59//59 56//56 75//75 
f 56//56 55//55 75//75 
f 55//55 48//48 57//57 
f 55//55 57//57 73//73 
f 61//61 60//60 63//63 
f 150//150 62//62 151//151 
f 64//64 61//61 79//79 
f 151//151 62//62 77//77 
f 76//76 61//61 63//63 
f 156//156 151//151 77//77 
f 64//64 19//19 20//20 
f 81//81 135//135 134//134 
f 136//136 21//21 152//152 
f 62//62 14//14 85//85 
f 85//85 77//77 62//62 
f 116//116 19//19 64//64 
f 81//81 153//153 135//135 
f 66//66 65//65 82//82 
f 159//159 153//153 81//81 
f 85//85 22//22 137//137 
f 85//85 137//137 67//67 
f 66//66 83//83 36//36 
f 36//36 88//88 94//94 
f 94//94 72//72 36//36 
f 74//74 69//69 58//58 
f 71//71 54//54 70//70 
f 68//68 54//54 71//71 
f 70//70 69//69 74//74 
f 57//57 72//72 73//73 
f 55//55 73//73 75//75 
f 73//73 72//72 95//95 
f 74//74 58//58 59//59 
f 58//58 147//147 59//59 
f 59//59 103//103 97//97 
f 103//103 59//59 100//100 
f 100//100 59//59 75//75 
f 76//76 78//78 61//61 
f 61//61 78//78 79//79 
f 77//77 80//80 156//156 
f 76//76 157//157 78//78 
f 77//77 106//106 80//80 
f 107//107 79//79 78//78 
f 157//157 107//107 78//78 
f 64//64 79//79 107//107 
f 64//64 107//107 116//116 
f 116//116 107//107 109//109 
f 111//111 77//77 85//85 
f 82//82 83//83 66//66 
f 119//119 83//83 82//82 
f 134//134 116//116 81//81 
f 81//81 118//118 159//159 
f 160//160 176//176 177//177 
f 116//116 118//118 81//81 
f 83//83 119//119 84//84 
f 122//122 84//84 119//119 
f 161//161 154//154 87//87 
f 88//88 86//86 123//123 
f 86//86 88//88 83//83 
f 162//162 163//163 182//182 
f 88//88 36//36 83//83 
f 87//87 154//154 91//91 
f 162//162 164//164 163//163 
f 68//68 89//89 47//47 
f 90//90 67//67 47//47 
f 47//47 89//89 90//90 
f 90//90 165//165 155//155 
f 96//96 169//169 164//164 
f 164//164 127//127 96//96 
f 187//187 166//166 125//125 
f 164//164 169//169 163//163 
f 68//68 71//71 89//89 
f 71//71 70//70 92//92 
f 98//98 70//70 74//74 
f 70//70 98//98 92//92 
f 89//89 71//71 124//124 
f 98//98 93//93 92//92 
f 93//93 124//124 71//71 
f 92//92 93//93 71//71 
f 98//98 129//129 93//93 
f 95//95 72//72 94//94 
f 99//99 75//75 73//73 
f 95//95 99//99 73//73 
f 96//96 95//95 169//169 
f 101//101 95//95 96//96 
f 95//95 101//101 99//99 
f 96//96 128//128 101//101 
f 74//74 59//59 97//97 
f 97//97 103//103 105//105 
f 97//97 98//98 74//74 
f 105//105 170//170 97//97 
f 171//171 105//105 104//104 
f 104//104 128//128 171//171 
f 99//99 100//100 75//75 
f 100//100 102//102 103//103 
f 102//102 100//100 99//99 
f 101//101 102//102 99//99 
f 102//102 104//104 105//105 
f 101//101 104//104 102//102 
f 105//105 103//103 102//102 
f 104//104 101//101 128//128 
f 108//108 107//107 157//157 
f 106//106 172//172 158//158 
f 110//110 172//172 106//106 
f 111//111 113//113 106//106 
f 110//110 106//106 113//113 
f 108//108 109//109 107//107 
f 109//109 108//108 173//173 
f 114//114 109//109 173//173 
f 174//174 110//110 113//113 
f 111//111 106//106 77//77 
f 109//109 117//117 116//116 
f 114//114 117//117 109//109 
f 113//113 111//111 174//174 
f 174//174 111//111 115//115 
f 115//115 111//111 112//112 
f 114//114 175//175 117//117 
f 117//117 118//118 116//116 
f 177//177 176//176 181//181 
f 176//176 117//117 181//181 
f 161//161 183//183 120//120 
f 121//121 178//178 123//123 
f 161//161 120//120 112//112 
f 179//179 180//180 117//117 
f 111//111 85//85 112//112 
f 179//179 117//117 175//175 
f 120//120 115//115 112//112 
f 84//84 86//86 83//83 
f 122//122 121//121 84//84 
f 121//121 86//86 84//84 
f 117//117 180//180 181//181 
f 86//86 121//121 123//123 
f 87//87 183//183 161//161 
f 89//89 184//184 90//90 
f 90//90 184//184 165//165 
f 124//124 184//184 89//89 
f 124//124 93//93 126//126 
f 128//128 96//96 127//127 
f 126//126 184//184 124//124 
f 125//125 185//185 187//187 
f 186//186 167//167 188//188 
f 191//191 189//189 168//168 
f 190//190 192//192 171//171 
f 128//128 190//190 171//171 
