#
# The license for this database is specified in the Creative Commons Attribution-Share Alike 2.1 Japan. If you use data from this database, please be sure attribute this database as follows: "BodyParts3D, (c)  The Database Center for Life Science licensed under CC Attribution-Share Alike 2.1 Japan".
# http://dbarchive.biosciencedbc.jp/en/bodyparts3d/lic.html
#
#
# Compatibility version : 4.3
# File ID : FJ3276
# Representation ID : BP21678
# Build-up logic : FMA 3.0 part_of
# Concept ID : FMA24442
# English name : Left pisiform
# Bounds(mm): (231.838000,-137.589000,789.725000)-(240.030000,-127.031000,801.277000)
# Volume(cm3): 0.442500
#
o FJ3276_BP21678_FMA24442_Left pisiform
v 233.286 -132.354 799.937
v 232.288 -129.449 798.701
v 232.46 -130.296 799.137
v 232.914 -130.012 799.898
v 233.08 -129.193 799.765
v 233.088 -128.047 798.752
v 233.558 -135.168 797.297
v 232.824 -133.611 797.457
v 231.896 -130.139 796.936
v 232.014 -128.704 796.387
v 232.513 -128.031 797.408
v 232.463 -128.073 796.309
v 232.814 -128.056 795.935
v 232.885 -134.21 794.48
v 231.962 -131.579 794.415
v 232.497 -132.857 793.628
v 232.408 -129.191 794.056
v 231.838 -130.967 793.216
v 232.28 -132.267 793.132
v 232.171 -132.081 791.602
v 232.574 -132.559 790.819
v 232.342 -131.508 790.6
v 234.536 -133.283 800.721
v 235.265 -131.857 801.277
v 233.538 -129.447 800.253
v 233.978 -131.072 800.939
v 234.617 -129.652 800.689
v 233.735 -128.169 799.476
v 234.187 -127.051 798.516
v 234.808 -128.054 799.685
v 234.618 -127.031 798.496
v 234.956 -127.179 798.938
v 235.338 -127.421 799.092
v 235.361 -127.281 798.891
v 235.667 -127.411 799.053
v 235.648 -127.441 798.408
v 233.77 -134.759 798.433
v 234.51 -136.331 797.32
v 235.234 -135.502 799.125
v 236.264 -136.692 798.259
v 233.165 -127.414 797.552
v 233.886 -127.233 797.724
v 233.971 -136.336 795.558
v 234.452 -136.721 796.256
v 234.447 -136.845 795.513
v 234.96 -136.902 796.657
v 235.792 -137.501 795.567
v 233.383 -128.977 793.827
v 234.383 -136.672 794.107
v 236.072 -137.517 793.514
v 235.908 -136.945 792.177
v 233.182 -133.549 791.703
v 233.985 -135.592 792.497
v 233.686 -134.56 791.962
v 234.366 -135.062 791.33
v 233.084 -129.531 792.507
v 234.181 -130.207 791.302
v 234.785 -129.728 791.67
v 233.533 -133.657 790.693
v 235.3 -133.975 789.88
v 233.059 -132.328 789.874
v 233.451 -131.418 790.294
v 234.006 -133.48 790.081
v 234.571 -132.672 789.725
v 237.274 -135.43 799.705
v 237.504 -133.984 800.496
v 238.648 -134.525 799.517
v 238.173 -132.172 800.214
v 238.01 -129.146 799.212
v 236.055 -127.426 799.231
v 236.787 -128.144 799.674
v 236.865 -127.697 799.034
v 237.389 -136.594 798.511
v 238.404 -135.933 798.684
v 238.278 -136.939 797.139
v 238.674 -129.131 797.99
v 236.923 -137.36 796.928
v 236.741 -137.363 792.69
v 237.2 -137.589 794.025
v 238.049 -136.897 792.569
v 238.488 -135.563 791.183
v 238.494 -134.817 790.96
v 235.795 -131.564 790.695
v 236.971 -132.925 790.758
v 236.793 -130.406 791.146
v 236.983 -131.461 791.072
v 237.689 -131.873 791.5
v 237.646 -129.737 792.244
v 238.296 -130.074 792.322
v 236.012 -136.059 790.957
v 236.595 -136.446 791.167
v 236.966 -136.13 790.859
v 236.423 -135.74 790.513
v 236.987 -135.758 790.584
v 236.734 -134.509 790.113
v 239.55 -134.44 798.338
v 239.45 -133.198 798.813
v 240.03 -133.738 797.091
v 239.426 -130.717 797.713
v 239.468 -130.176 795.58
v 239.323 -136.103 796.398
v 238.467 -129.197 794.997
v 239.3 -135.65 792.364
v 239.164 -134.263 791.648
v 239.384 -135.018 791.747
v 239.95 -134.547 793.228
v 239.146 -132.004 792.812
v 234.187 -127.051 798.516
v 234.618 -127.031 798.496
v 235.361 -127.281 798.891
v 235.667 -127.411 799.053
v 233.059 -132.328 789.874
v 233.059 -132.328 789.874
v 236.055 -127.426 799.231
v 236.865 -127.697 799.034
v 239.146 -132.004 792.812
vn -0.799785 -0.271606 0.535326
vn -0.900162 0.237977 0.364796
vn -0.922588 -0.120327 0.366541
vn -0.765882 0.0869709 0.637072
vn -0.668637 0.402522 0.62522
vn -0.669428 0.592019 0.448752
vn -0.808236 -0.535446 0.245055
vn -0.915914 -0.34871 0.198754
vn -0.985873 -0.111012 0.125422
vn -0.932664 0.360422 -0.0152955
vn -0.803492 0.566345 0.183451
vn -0.646305 0.73969 -0.187481
vn -0.256114 0.890153 -0.376873
vn -0.917431 -0.395317 -0.045224
vn -0.95154 -0.307391 0.00906327
vn -0.908914 -0.388582 -0.151256
vn -0.6388 0.685759 -0.34881
vn -0.989978 0.0834681 -0.113911
vn -0.884696 -0.461645 -0.0647793
vn -0.926358 -0.362697 -0.101548
vn -0.821512 -0.472409 -0.319293
vn -0.80009 0.2839 -0.528448
vn -0.38019 -0.443747 0.811508
vn 0.0778973 0.0463745 0.995882
vn -0.42355 0.392903 0.816231
vn -0.485658 0.0299027 0.873637
vn -0.0834455 0.390489 0.916818
vn -0.379699 0.610307 0.695236
vn -0.355903 0.790184 0.498942
vn -0.0821747 0.624392 0.776777
vn 0.177535 0.966214 0.18685
vn 0.0716663 0.884175 0.461627
vn 0.119893 0.728806 0.674142
vn 0.154631 0.802703 0.575984
vn -0.0341195 0.773916 0.632369
vn 0.264791 0.939312 -0.218128
vn -0.720617 -0.528276 0.44904
vn -0.577514 -0.708305 0.405932
vn -0.397224 -0.666438 0.630931
vn -0.234919 -0.812899 0.532924
vn -0.47755 0.878398 -0.0190477
vn 0.0190657 0.939324 -0.342502
vn -0.826638 -0.560496 0.0501351
vn -0.62189 -0.755364 0.206587
vn -0.593793 -0.803948 0.032832
vn -0.380005 -0.871267 0.310628
vn -0.303222 -0.949553 0.0800411
vn -0.0153254 0.931626 -0.363096
vn -0.652987 -0.740185 -0.16042
vn -0.258748 -0.948901 -0.180656
vn -0.389283 -0.807113 -0.443878
vn -0.826723 -0.547161 -0.130934
vn -0.745693 -0.563918 -0.354877
vn -0.838627 -0.477208 -0.262635
vn -0.62554 -0.595336 -0.504257
vn -0.295988 0.800387 -0.521318
vn -0.0719276 0.621336 -0.780236
vn -0.0235519 0.835372 -0.54918
vn -0.701495 -0.579371 -0.415011
vn -0.0956789 -0.281521 -0.954773
vn -0.701192 -0.473128 -0.533366
vn -0.0741254 0.591222 -0.803096
vn -0.398911 -0.493635 -0.772784
vn 0.113936 0.150211 -0.982067
vn 0.0994449 -0.617724 0.780082
vn 0.281889 -0.298142 0.911949
vn 0.639611 -0.304388 0.705866
vn 0.622419 0.127415 0.772243
vn 0.737696 0.380764 0.557516
vn 0.0686778 0.733542 0.676165
vn 0.390858 0.514568 0.763184
vn 0.550881 0.651034 0.522192
vn 0.175689 -0.817996 0.547737
vn 0.588759 -0.606045 0.534857
vn 0.471468 -0.843276 0.258076
vn 0.772036 0.594329 0.22524
vn -0.000818033 -0.959803 0.280673
vn 0.0436052 -0.926291 -0.374278
vn 0.263612 -0.963404 -0.0485845
vn 0.457775 -0.811198 -0.363868
vn 0.504236 -0.48838 -0.712201
vn 0.550599 0.0448971 -0.833561
vn 0.221448 0.359839 -0.906354
vn 0.488874 0.257417 -0.83351
vn 0.298669 0.437886 -0.84797
vn 0.438698 0.163319 -0.883669
vn 0.618389 0.133193 -0.774503
vn 0.237408 0.86953 -0.433077
vn 0.680133 0.47848 -0.555407
vn -0.417406 -0.668209 -0.615848
vn -0.0254141 -0.79322 -0.608404
vn 0.219083 -0.691976 -0.687875
vn -0.103722 -0.539889 -0.835321
vn 0.241593 -0.448862 -0.860323
vn 0.287477 -0.0953565 -0.953029
vn 0.859569 -0.308613 0.407306
vn 0.863707 0.0219901 0.503514
vn 0.988647 -0.038924 0.14513
vn 0.903328 0.257989 0.342696
vn 0.915529 0.386055 -0.112998
vn 0.802587 -0.589859 0.0890028
vn 0.457231 0.861137 -0.222223
vn 0.771691 -0.573745 -0.274427
vn 0.727261 0.258111 -0.635979
vn 0.804862 -0.181823 -0.564922
vn 0.97662 -0.0477637 -0.209602
vn 0.635016 0.189381 -0.748926
vn -0.132422 0.975782 -0.174111
vn 0.118984 0.926987 -0.355723
vn 0.319842 0.939653 -0.121465
vn 0.241278 0.969028 -0.0526285
vn -0.133043 0.461566 -0.877073
vn -0.160793 -0.301315 -0.93987
vn 0.171116 0.979849 -0.103032
vn 0.401622 0.903827 -0.147639
vn 0.907106 0.260594 -0.33053
f 4//4 3//3 1//1
f 4//4 1//1 26//26 
f 3//3 2//2 9//9 
f 3//3 4//4 2//2 
f 5//5 2//2 4//4 
f 2//2 5//5 6//6 
f 4//4 26//26 25//25 
f 25//25 5//5 4//4 
f 10//10 2//2 11//11 
f 2//2 6//6 11//11 
f 6//6 41//41 11//11 
f 8//8 7//7 37//37 
f 1//1 3//3 8//8 
f 3//3 9//9 8//8 
f 1//1 8//8 37//37 
f 8//8 9//9 14//14 
f 9//9 15//15 14//14 
f 37//37 23//23 1//1 
f 2//2 10//10 9//9 
f 9//9 10//10 18//18 
f 10//10 17//17 18//18 
f 11//11 12//12 10//10 
f 10//10 12//12 17//17 
f 11//11 41//41 12//12 
f 13//13 12//12 41//41 
f 17//17 12//12 13//13 
f 13//13 42//42 48//48 
f 42//42 13//13 41//41 
f 15//15 16//16 14//14 
f 14//14 16//16 53//53 
f 15//15 9//9 18//18 
f 18//18 20//20 15//15 
f 15//15 20//20 19//19 
f 18//18 22//22 20//20 
f 19//19 16//16 15//15 
f 18//18 17//17 22//22 
f 17//17 13//13 48//48 
f 17//17 56//56 22//22 
f 56//56 17//17 48//48 
f 19//19 54//54 16//16 
f 19//19 52//52 54//54 
f 19//19 20//20 52//52 
f 52//52 20//20 21//21 
f 20//20 22//22 21//21 
f 56//56 62//62 22//22 
f 59//59 52//52 21//21 
f 57//57 62//62 56//56 
f 61//61 59//59 21//21 
f 61//61 21//21 22//22 
f 62//62 112//112 22//22 
f 23//23 26//26 1//1 
f 37//37 39//39 23//23 
f 65//65 23//23 39//39 
f 23//23 24//24 26//26 
f 66//66 24//24 23//23 
f 65//65 66//66 23//23 
f 24//24 66//66 68//68 
f 27//27 25//25 26//26 
f 24//24 27//27 26//26 
f 30//30 25//25 27//27 
f 71//71 27//27 24//24 
f 71//71 24//24 68//68 
f 69//69 71//71 68//68 
f 30//30 28//28 25//25 
f 28//28 5//5 25//25 
f 6//6 5//5 28//28 
f 6//6 28//28 29//29 
f 29//29 41//41 6//6 
f 42//42 41//41 108//108 
f 28//28 30//30 32//32 
f 32//32 29//29 28//28 
f 29//29 32//32 31//31 
f 109//109 42//42 108//108 
f 109//109 36//36 42//42 
f 32//32 36//36 31//31 
f 30//30 27//27 71//71 
f 30//30 33//33 32//32 
f 34//34 32//32 33//33 
f 36//36 32//32 110//110 
f 30//30 35//35 33//33 
f 33//33 35//35 34//34 
f 70//70 30//30 71//71 
f 70//70 35//35 30//30 
f 111//111 114//114 36//36 
f 110//110 111//111 36//36 
f 38//38 37//37 7//7 
f 46//46 38//38 44//44 
f 38//38 7//7 44//44 
f 39//39 37//37 38//38 
f 39//39 38//38 40//40 
f 40//40 38//38 46//46 
f 73//73 40//40 77//77 
f 48//48 42//42 36//36 
f 43//43 7//7 8//8 
f 8//8 14//14 43//43 
f 14//14 49//49 43//43 
f 44//44 43//43 45//45 
f 7//7 43//43 44//44 
f 49//49 45//45 43//43 
f 46//46 44//44 47//47 
f 47//47 44//44 45//45 
f 45//45 49//49 47//47 
f 47//47 77//77 46//46 
f 77//77 40//40 46//46 
f 88//88 58//58 48//48 
f 14//14 53//53 49//49 
f 50//50 49//49 51//51 
f 51//51 49//49 53//53 
f 49//49 50//50 47//47 
f 90//90 51//51 53//53 
f 90//90 53//53 55//55 
f 47//47 50//50 79//79 
f 79//79 50//50 78//78 
f 51//51 78//78 50//50 
f 90//90 91//91 51//51 
f 54//54 53//53 16//16 
f 55//55 53//53 54//54 
f 59//59 54//54 52//52 
f 59//59 55//55 54//54 
f 63//63 55//55 59//59 
f 57//57 58//58 85//85 
f 57//57 85//85 83//83 
f 57//57 83//83 62//62 
f 83//83 64//64 62//62 
f 64//64 83//83 84//84 
f 58//58 57//57 56//56 
f 58//58 56//56 48//48 
f 60//60 63//63 64//64 
f 63//63 90//90 55//55 
f 63//63 59//59 61//61 
f 63//63 113//113 64//64 
f 62//62 64//64 112//112 
f 40//40 65//65 39//39 
f 65//65 67//67 66//66 
f 97//97 67//67 96//96 
f 68//68 66//66 67//67 
f 99//99 69//69 68//68 
f 68//68 67//67 97//97 
f 76//76 71//71 69//69 
f 76//76 69//69 99//99 
f 48//48 36//36 102//102 
f 70//70 71//71 72//72 
f 115//115 102//102 36//36 
f 115//115 36//36 114//114 
f 76//76 72//72 71//71 
f 115//115 76//76 102//102 
f 40//40 73//73 65//65 
f 74//74 65//65 73//73 
f 73//73 77//77 75//75 
f 65//65 74//74 67//67 
f 75//75 74//74 73//73 
f 74//74 96//96 67//67 
f 74//74 101//101 96//96 
f 75//75 101//101 74//74 
f 77//77 47//47 79//79 
f 77//77 79//79 75//75 
f 101//101 75//75 79//79 
f 102//102 88//88 48//48 
f 89//89 102//102 100//100 
f 102//102 89//89 88//88 
f 51//51 91//91 78//78 
f 80//80 79//79 78//78 
f 80//80 78//78 91//91 
f 92//92 80//80 91//91 
f 80//80 101//101 79//79 
f 94//94 81//81 92//92 
f 80//80 92//92 81//81 
f 80//80 81//81 103//103 
f 81//81 95//95 82//82 
f 95//95 84//84 82//82 
f 83//83 86//86 84//84 
f 83//83 85//85 86//86 
f 86//86 85//85 87//87 
f 107//107 84//84 87//87 
f 86//86 87//87 84//84 
f 89//89 85//85 88//88 
f 87//87 85//85 89//89 
f 89//89 107//107 87//87 
f 85//85 58//58 88//88 
f 93//93 91//91 90//90 
f 91//91 93//93 92//92 
f 94//94 92//92 93//93 
f 94//94 93//93 95//95 
f 90//90 63//63 93//93 
f 93//93 63//63 60//60 
f 95//95 60//60 64//64 
f 93//93 60//60 95//95 
f 94//94 95//95 81//81 
f 64//64 84//84 95//95 
f 101//101 98//98 96//96 
f 97//97 99//99 68//68 
f 97//97 96//96 98//98 
f 98//98 99//99 97//97 
f 76//76 99//99 100//100 
f 76//76 100//100 102//102 
f 99//99 98//98 100//100 
f 106//106 98//98 101//101 
f 98//98 106//106 100//100 
f 100//100 106//106 116//116 
f 80//80 103//103 101//101 
f 106//106 101//101 103//103 
f 104//104 84//84 107//107 
f 82//82 84//84 104//104 
f 81//81 105//105 103//103 
f 82//82 105//105 81//81 
f 106//106 104//104 116//116 
f 105//105 82//82 104//104 
f 106//106 103//103 105//105 
f 106//106 105//105 104//104 
f 89//89 100//100 116//116 
