#
# The license for this database is specified in the Creative Commons Attribution-Share Alike 2.1 Japan. If you use data from this database, please be sure attribute this database as follows: "BodyParts3D, (c)  The Database Center for Life Science licensed under CC Attribution-Share Alike 2.1 Japan".
# http://dbarchive.biosciencedbc.jp/en/bodyparts3d/lic.html
#
#
# Compatibility version : 4.3
# File ID : FJ3291
# Representation ID : BP23924
# Build-up logic : FMA 3.0 is_a
# Concept ID : FMA23942
# English name : Middle phalanx of left ring finger
# Bounds(mm): (242.782000,-180.547000,669.821000)-(254.532000,-156.794000,693.684000)
# Volume(cm3): 0.998000
#
o FJ3291_BP23924_FMA23942_Middle phalanx of left ring finger
v 246.007 -163.919 693.391
v 245.301 -164.737 692.128
v 243.646 -164.048 691.906
v 244.823 -163.992 693.026
v 244.357 -164.624 691.916
v 244.577 -163.084 693.034
v 242.996 -163.221 691.322
v 242.973 -161.62 690.906
v 243.646 -161.514 691.333
v 243.261 -161.02 690.457
v 243.487 -164.324 690.987
v 244.622 -164.811 691.177
v 242.782 -162.66 689.703
v 242.996 -161.141 690.03
v 244.107 -164.373 688.23
v 243.669 -163.497 687.469
v 245.507 -179.587 674.238
v 246.166 -179.839 674.442
v 245.515 -180.141 673.783
v 245.34 -179.862 673.74
v 245.338 -180.004 673.425
v 245.473 -180.323 673.193
v 245.29 -179.513 673.521
v 245.804 -180.404 673.501
v 245.833 -180.547 672.878
v 247.101 -163.359 693.684
v 249.411 -163.965 693.284
v 248.23 -164.865 691.585
v 244.627 -160.907 690.802
v 243.47 -160.251 689.906
v 244.347 -159.794 690.036
v 243.802 -158.976 689.247
v 243.283 -159.957 689.138
v 243.368 -160.529 688.45
v 243.893 -161.097 687.468
v 243.616 -159.263 688.727
v 244.085 -159.396 688.009
v 245.093 -164.594 688.662
v 243.578 -162.366 687.573
v 243.901 -163.336 686.421
v 244.31 -162.914 685.639
v 244.152 -165.003 685.86
v 244.339 -165.541 683.704
v 245.278 -169.47 679.911
v 245.763 -169.557 680.219
v 245.913 -170.897 678.789
v 245.332 -170.129 678.782
v 245.883 -172.249 677.53
v 246.146 -173.192 676.978
v 245.653 -172.893 676.412
v 246.312 -172.149 677.867
v 245.879 -175.833 675.398
v 245.896 -174.915 675.744
v 245.705 -175.356 675.156
v 246.241 -175.169 675.861
v 246.729 -176.541 675.449
v 245.578 -172.285 675.93
v 247.11 -179.007 674.878
v 247.579 -179.532 674.556
v 248.322 -178.79 674.691
v 245.298 -178.306 674.076
v 245.819 -177.403 675.12
v 245.502 -175.854 673.865
v 245.445 -176.487 672.993
v 245.634 -175.603 673.436
v 245.643 -174.738 674.437
v 247.016 -180.511 673.029
v 245.39 -179.716 672.682
v 245.639 -180.163 672.068
v 246.487 -180.413 671.887
v 246.342 -179.678 670.963
v 245.879 -178.606 670.849
v 246.621 -178.725 670.501
v 250.991 -162.327 693.354
v 248.521 -162.065 693.299
v 249.009 -161.534 692.798
v 248.331 -159.087 690.094
v 245.169 -158.226 689.722
v 245.069 -157.684 688.583
v 245.557 -157.373 689.058
v 245.156 -160.215 686.43
v 245.711 -158.048 687.662
v 249.265 -165.842 687.205
v 248.089 -169.132 681.88
v 249.836 -169.066 681.786
v 247.455 -172.093 678.36
v 249.797 -173.822 677.093
v 245.696 -169.692 677.281
v 249.986 -177.218 674.638
v 248.304 -175.731 675.846
v 245.797 -173.988 674.173
v 250.002 -179.42 673.702
v 248.313 -178 674.835
v 249.543 -178.367 674.28
v 246.163 -175.567 672.462
v 249.332 -180.013 672.096
v 248.425 -179.422 670.852
v 248.203 -179.004 670.458
v 246.345 -177.369 670.859
v 246.693 -177.868 670.512
v 247.643 -176.545 670.893
v 252.361 -162.913 692.451
v 251.364 -161.683 693.064
v 251.844 -161.901 693.039
v 252.293 -161.359 692.479
v 252.069 -161.134 692.301
v 252.753 -161.148 692.096
v 252.395 -160.733 691.878
v 251.543 -160.326 691.283
v 247.297 -157.255 689.758
v 252.975 -163.4 691.065
v 246.93 -156.794 688.701
v 246.678 -159.03 686.368
v 248.131 -167.324 677.493
v 252.488 -176.402 674.618
v 253.381 -179.498 673.17
v 252.362 -180.047 672.399
v 250.428 -179.236 670.523
v 252.34 -179.704 670.474
v 250.554 -176.745 670.394
v 251.058 -178.502 669.996
v 253.804 -162.607 691.279
v 253.517 -161.726 691.772
v 253.225 -160.585 691.558
v 254.062 -160.563 690.682
v 252.669 -159.89 691.209
v 251.347 -158.939 690.122
v 252.125 -158.539 690.112
v 253.099 -159.165 690.691
v 252.185 -158.185 689.819
v 253.441 -158.984 689.597
v 251.535 -158.246 689.879
v 251.002 -157.825 689.703
v 251.645 -157.942 689.747
v 254.116 -162.599 690.06
v 253.135 -163.216 688.625
v 253.932 -162.261 689.077
v 254.532 -161.52 690.06
v 254.508 -161.715 689.717
v 254.321 -161.561 689.36
v 254.376 -161.173 689.536
v 254.005 -161.062 688.325
v 252.666 -159.09 687.635
v 250.43 -156.995 688.682
v 249.062 -157.705 687.147
v 253.251 -163.33 686.151
v 253.534 -161.439 686.578
v 253.644 -164.298 683.863
v 252.683 -168.727 679.434
v 252.965 -167.851 679.245
v 252.088 -168.932 676.541
v 252.384 -174.423 675.386
v 252.924 -173.112 675.581
v 252.295 -172.869 676.372
v 253.213 -177.312 674.255
v 254.061 -177.039 673.739
v 253.148 -174.333 674.752
v 253.44 -175.468 674.273
v 253.197 -173.523 674.215
v 253.463 -174.676 673.611
v 253.347 -174.806 672.75
v 252.623 -172.306 673.967
v 254.064 -179.026 672.6
v 254.08 -179.12 671.927
v 254.012 -176.303 672.488
v 252.355 -175.512 671.147
v 253.109 -176.309 670.913
v 253.279 -179.91 671.465
v 252.449 -179.29 670.141
v 253.166 -179.541 670.541
v 253.283 -178.353 670.519
v 251.793 -177.619 669.821
v 246.007 -163.919 693.391
v 246.007 -163.919 693.391
v 242.996 -163.221 691.322
v 242.973 -161.62 690.906
v 242.996 -161.141 690.03
v 244.107 -164.373 688.23
v 247.101 -163.359 693.684
v 247.101 -163.359 693.684
v 249.411 -163.965 693.284
v 249.411 -163.965 693.284
v 249.411 -163.965 693.284
v 244.152 -165.003 685.86
v 245.332 -170.129 678.782
v 245.879 -175.833 675.398
v 247.579 -179.532 674.556
v 245.819 -177.403 675.12
v 245.639 -180.163 672.068
v 250.991 -162.327 693.354
v 249.265 -165.842 687.205
v 250.002 -179.42 673.702
v 246.163 -175.567 672.462
v 252.361 -162.913 692.451
v 247.297 -157.255 689.758
v 246.93 -156.794 688.701
v 253.381 -179.498 673.17
v 253.099 -159.165 690.691
v 251.002 -157.825 689.703
v 254.532 -161.52 690.06
v 253.251 -163.33 686.151
v 253.534 -161.439 686.578
v 253.644 -164.298 683.863
v 253.644 -164.298 683.863
v 253.644 -164.298 683.863
v 252.683 -168.727 679.434
v 252.965 -167.851 679.245
v 252.924 -173.112 675.581
v 254.061 -177.039 673.739
v 253.148 -174.333 674.752
v 253.44 -175.468 674.273
v 254.064 -179.026 672.6
v 254.064 -179.026 672.6
v 254.08 -179.12 671.927
v 253.166 -179.541 670.541
v 253.166 -179.541 670.541
vn -0.269947 -0.0512114 0.961512
vn -0.0985937 -0.910774 0.400962
vn -0.710122 -0.444896 0.545705
vn -0.398952 -0.545429 0.737119
vn -0.396522 -0.844425 0.360161
vn -0.487328 0.182848 0.853861
vn -0.946874 -0.289727 0.139599
vn -0.645598 0.48748 0.587849
vn -0.322582 0.689604 0.648373
vn -0.554851 0.620618 0.554052
vn -0.710885 -0.699224 0.0756867
vn -0.19478 -0.980706 0.0166353
vn -0.983782 -0.114485 -0.138081
vn -0.778821 0.530497 0.334681
vn -0.875593 -0.47686 -0.0770753
vn -0.96542 -0.216338 -0.14547
vn -0.719223 -0.311972 0.620799
vn -0.137565 -0.643472 0.753007
vn -0.628769 -0.642247 0.43837
vn -0.933875 -0.242034 0.263243
vn -0.952104 -0.30203 0.047707
vn -0.766549 -0.64165 0.0262145
vn -0.99917 -0.0353532 -0.0202219
vn -0.196978 -0.911227 0.361752
vn -0.280954 -0.958424 -0.0498787
vn -0.220013 0.22509 0.949173
vn 0.0204838 -0.494164 0.869127
vn 0.0625613 -0.965745 0.25184
vn -0.145989 0.678493 0.719955
vn -0.602396 0.48838 0.631351
vn -0.215941 0.412669 0.884915
vn -0.736355 0.603808 0.305283
vn -0.931342 0.355859 0.0772409
vn -0.880498 0.193163 -0.43291
vn -0.797975 0.261461 -0.543023
vn -0.832697 0.462516 -0.304458
vn -0.686707 0.409956 -0.600308
vn -0.167274 -0.985837 0.0120616
vn -0.922773 0.0786758 -0.377226
vn -0.950428 0.102291 -0.293637
vn -0.867286 0.271984 -0.416942
vn -0.958715 -0.284172 0.0105857
vn -0.978959 0.0211104 -0.20296
vn -0.614112 -0.663726 0.427007
vn -0.35962 -0.736662 0.572715
vn -0.505094 -0.630494 0.58937
vn -0.992831 -0.0270669 -0.116422
vn -0.624723 -0.529794 0.57362
vn -0.521301 -0.487927 0.700123
vn -0.921781 -0.250991 0.295506
vn -0.341802 -0.595695 0.726856
vn -0.358914 -0.286806 0.888213
vn -0.74255 -0.286876 0.605245
vn -0.947161 -0.0583672 0.315403
vn -0.333965 -0.39312 0.856694
vn -0.100369 -0.289635 0.95186
vn -0.988962 0.0573746 -0.136609
vn 0.0544165 -0.30009 0.952358
vn 0.176324 -0.856986 0.484236
vn 0.295835 -0.298741 0.907323
vn -0.973943 -0.0119794 0.226478
vn -0.865529 -0.0640742 0.496744
vn -0.989541 0.143925 -0.00967044
vn -0.948097 0.194925 -0.251229
vn -0.926106 0.267292 -0.266239
vn -0.996267 0.0719684 -0.047682
vn 0.140577 -0.959783 0.243014
vn -0.975553 -0.111864 -0.189162
vn -0.446791 -0.813867 -0.371481
vn -0.0460629 -0.915264 -0.400212
vn -0.265056 -0.585551 -0.766078
vn -0.753418 -0.0223251 -0.657162
vn -0.221512 -0.186215 -0.957213
vn 0.0636292 0.235377 0.969819
vn -0.0765157 0.508174 0.857849
vn -0.0850998 0.783417 0.615643
vn -0.0322861 0.337137 0.940902
vn -0.377672 0.502969 0.777423
vn -0.598009 0.73845 -0.311572
vn -0.461869 0.810862 0.359416
vn -0.620131 0.47665 -0.62309
vn -0.386254 0.645158 -0.659226
vn -0.200236 -0.910067 0.362882
vn -0.130784 -0.77001 0.624484
vn 0.420908 -0.699953 0.576977
vn -0.243097 -0.659001 0.711774
vn 0.200637 -0.597455 0.776397
vn -0.800002 0.357136 -0.482132
vn 0.200227 -0.390892 0.898395
vn -0.0238261 -0.507804 0.861143
vn -0.919568 0.221983 -0.324218
vn 0.129952 -0.906516 0.401673
vn 0.217775 -0.289076 0.932207
vn 0.327086 -0.308076 0.893367
vn -0.821619 0.337947 -0.459058
vn 0.0459401 -0.981241 -0.187233
vn 0.0449191 -0.788387 -0.613537
vn -0.0462875 -0.548306 -0.834996
vn -0.582068 0.399254 -0.708373
vn -0.303051 0.220848 -0.927031
vn -0.243062 0.521441 -0.817937
vn 0.475665 -0.742507 0.471622
vn 0.0984178 0.630142 0.770217
vn 0.44529 0.17062 0.87898
vn 0.337443 0.548733 0.764869
vn 0.0580559 0.740775 0.66924
vn 0.409254 0.455678 0.790486
vn 0.0884139 0.657513 0.748238
vn -0.0973049 0.736223 0.669706
vn -0.0443295 0.209148 0.976879
vn 0.478348 -0.832693 0.278938
vn -0.228792 0.851513 -0.471784
vn -0.323253 0.645434 -0.692043
vn -0.225496 0.6414 -0.733319
vn 0.314915 -0.351008 0.881829
vn 0.44254 -0.858726 0.258356
vn 0.094331 -0.964393 0.247079
vn -0.107402 -0.690593 -0.715225
vn 0.00271032 -0.827826 -0.560979
vn -0.0775949 0.523338 -0.848585
vn -0.083712 -0.343337 -0.935474
vn 0.778825 -0.428321 0.458229
vn 0.684299 0.120152 0.719235
vn 0.417881 0.467761 0.778829
vn 0.808314 0.367666 0.459838
vn -0.0677836 0.59429 0.80139
vn -0.120498 0.47097 0.873881
vn -0.0895018 0.543183 0.834831
vn 0.00271861 0.595498 0.803352
vn 0.336028 0.805388 0.488298
vn 0.807094 0.588043 -0.0529528
vn -0.0860278 0.386366 0.918325
vn -0.00232397 0.32255 0.94655
vn 0.103004 0.653986 0.749461
vn 0.788346 -0.614724 -0.024989
vn 0.68462 -0.726439 -0.0598529
vn 0.864767 -0.408886 -0.291531
vn 0.918145 -0.162339 0.361465
vn 0.943209 -0.176565 -0.281391
vn 0.896479 -0.121919 -0.425984
vn 0.948612 0.211091 -0.235745
vn 0.9559 0.0426826 -0.290575
vn 0.619177 0.615218 -0.487982
vn 0.310874 0.946266 0.0890995
vn 0.0504389 0.753152 -0.65591
vn 0.634585 -0.730197 0.253207
vn 0.988852 -0.148871 0.00291083
vn 0.579139 -0.666772 0.469056
vn 0.565748 -0.565581 0.600039
vn 0.945278 -0.262104 0.194297
vn 0.559494 0.575317 -0.596637
vn 0.544529 -0.322376 0.774314
vn 0.644289 -0.417448 0.640803
vn 0.55789 -0.481633 0.675861
vn 0.314224 -0.272346 0.909446
vn 0.620879 -0.252335 0.742183
vn 0.653941 -0.289505 0.698962
vn 0.535519 -0.140999 0.83267
vn 0.986267 0.163706 -0.0218765
vn 0.962786 0.254075 0.092139
vn 0.800303 0.458424 -0.386474
vn 0.73001 0.479245 -0.487246
vn 0.730262 -0.339159 0.593034
vn 0.698882 -0.714949 -0.0203265
vn 0.93464 0.244732 -0.257981
vn 0.207727 0.59389 -0.777267
vn 0.60724 0.405229 -0.68341
vn 0.354424 -0.926301 -0.127866
vn 0.131081 -0.352972 -0.926407
vn 0.202934 -0.791326 -0.576734
vn 0.695472 0.0557065 -0.716391
vn 0.073915 0.202871 -0.976412
vn -0.0239078 -0.848945 0.52794
vn 0.0204838 -0.494164 0.869127
vn -0.735604 0.034655 0.676525
vn -0.992911 0.0755311 0.0917706
vn -0.988949 0.145258 -0.0296574
vn -0.260568 -0.964688 0.0384783
vn 0.0204838 -0.494164 0.869127
vn 0.190524 0.0816681 0.97828
vn 0.0838501 0.0315844 0.995978
vn 0.246576 -0.880043 0.405864
vn 0.378588 -0.400517 0.83442
vn -0.429868 -0.801293 0.416105
vn -0.740595 -0.538563 0.401833
vn -0.887096 -0.0947627 0.451752
vn 0.187517 -0.448494 0.873894
vn -0.221464 -0.24951 0.942708
vn -0.889552 -0.25691 -0.377749
vn 0.414548 -0.334651 0.846261
vn 0.523035 -0.8382 0.154452
vn 0.240722 -0.39619 0.886051
vn -0.379633 0.581123 -0.719843
vn 0.525227 -0.256789 0.811293
vn -0.0954072 0.836609 0.539429
vn -0.094499 0.899841 0.425859
vn 0.496012 -0.383533 0.779022
vn 0.674352 0.599894 0.430553
vn 0.118715 0.80186 0.5856
vn 0.943344 0.329562 -0.0386115
vn 0.986452 -0.154587 -0.0549052
vn 0.800806 0.458756 -0.385035
vn 0.948594 -0.197988 0.24692
vn 0.767182 0.4516 -0.455511
vn 0.95378 -0.289057 0.0821574
vn 0.950974 -0.227416 0.209595
vn 0.812003 0.401312 -0.423792
vn 0.976408 -0.0494029 0.210207
vn 0.985077 0.130545 0.112163
vn 0.971656 0.104486 0.212056
vn 0.939821 0.202109 0.275478
vn 0.999607 -0.0129002 0.0248732
vn 0.63165 -0.765609 0.121905
vn 0.967846 0.00844048 -0.251402
vn 0.752592 -0.574558 -0.321697
vn 0.679624 -0.0799428 -0.729192
f 6//6 4//4 1//1
f 1//1 26//26 6//6 
f 75//75 6//6 26//26 
f 2//2 12//12 28//28 
f 28//28 12//12 38//38 
f 28//28 173//173 2//2 
f 3//3 7//7 11//11 
f 3//3 6//6 175//175 
f 7//7 13//13 11//11 
f 3//3 4//4 6//6 
f 11//11 5//5 3//3 
f 5//5 4//4 3//3 
f 5//5 2//2 4//4 
f 12//12 5//5 11//11 
f 2//2 173//173 4//4 
f 2//2 5//5 12//12 
f 8//8 175//175 6//6 
f 7//7 176//176 13//13 
f 9//9 6//6 75//75 
f 6//6 9//9 8//8 
f 10//10 14//14 8//8 
f 177//177 13//13 176//176 
f 75//75 29//29 9//9 
f 8//8 9//9 10//10 
f 9//9 29//29 10//10 
f 10//10 33//33 14//14 
f 33//33 10//10 30//30 
f 15//15 11//11 13//13 
f 12//12 11//11 178//178 
f 12//12 178//178 38//38 
f 16//16 13//13 39//39 
f 15//15 13//13 16//16 
f 39//39 13//13 34//34 
f 177//177 33//33 13//13 
f 15//15 16//16 42//42 
f 62//62 61//61 17//17 
f 17//17 20//20 19//19 
f 17//17 61//61 20//20 
f 17//17 18//18 188//188 
f 19//19 24//24 18//18 
f 19//19 18//18 17//17 
f 61//61 23//23 20//20 
f 20//20 21//21 19//19 
f 23//23 21//21 20//20 
f 21//21 22//22 19//19 
f 23//23 68//68 21//21 
f 24//24 22//22 25//25 
f 19//19 22//22 24//24 
f 21//21 68//68 22//22 
f 69//69 70//70 25//25 
f 69//69 25//25 22//22 
f 179//179 174//174 27//27 
f 180//180 181//181 75//75 
f 75//75 181//181 74//74 
f 28//28 182//182 173//173 
f 10//10 31//31 30//30 
f 31//31 10//10 29//29 
f 31//31 78//78 30//30 
f 30//30 32//32 33//33 
f 78//78 32//32 30//30 
f 80//80 79//79 32//32 
f 28//28 38//38 83//83 
f 33//33 34//34 13//13 
f 39//39 34//34 35//35 
f 32//32 36//36 33//33 
f 34//34 33//33 36//36 
f 32//32 79//79 36//36 
f 37//37 34//34 36//36 
f 35//35 34//34 37//37 
f 37//37 36//36 79//79 
f 81//81 35//35 37//37 
f 37//37 82//82 81//81 
f 79//79 82//82 37//37 
f 38//38 178//178 83//83 
f 184//184 83//83 178//178 
f 16//16 39//39 40//40 
f 40//40 39//39 41//41 
f 41//41 39//39 35//35 
f 81//81 41//41 35//35 
f 16//16 43//43 42//42 
f 42//42 43//43 47//47 
f 16//16 40//40 43//43 
f 41//41 43//43 40//40 
f 88//88 43//43 41//41 
f 81//81 88//88 41//41 
f 184//184 45//45 83//83 
f 43//43 88//88 47//47 
f 45//45 184//184 44//44 
f 184//184 185//185 44//44 
f 46//46 45//45 44//44 
f 88//88 57//57 47//47 
f 46//46 44//44 185//185 
f 46//46 185//185 48//48 
f 185//185 50//50 48//48 
f 47//47 57//57 50//50 
f 51//51 46//46 48//48 
f 90//90 51//51 49//49 
f 51//51 48//48 49//49 
f 49//49 48//48 50//50 
f 50//50 57//57 66//66 
f 90//90 49//49 55//55 
f 188//188 56//56 52//52 
f 52//52 55//55 53//53 
f 53//53 54//54 186//186 
f 56//56 55//55 52//52 
f 56//56 90//90 55//55 
f 55//55 49//49 53//53 
f 49//49 50//50 53//53 
f 53//53 50//50 54//54 
f 50//50 66//66 54//54 
f 66//66 57//57 91//91 
f 92//92 59//59 67//67 
f 18//18 58//58 188//188 
f 18//18 24//24 67//67 
f 58//58 18//18 187//187 
f 59//59 18//18 67//67 
f 56//56 188//188 58//58 
f 56//56 58//58 93//93 
f 187//187 60//60 58//58 
f 60//60 93//93 58//58 
f 56//56 93//93 90//90 
f 54//54 61//61 62//62 
f 62//62 186//186 54//54 
f 63//63 61//61 54//54 
f 61//61 63//63 64//64 
f 66//66 63//63 54//54 
f 65//65 63//63 66//66 
f 63//63 65//65 64//64 
f 65//65 95//95 64//64 
f 91//91 65//65 66//66 
f 95//95 65//65 91//91 
f 22//22 68//68 189//189 
f 68//68 72//72 189//189 
f 24//24 25//25 67//67 
f 61//61 64//64 23//23 
f 68//68 23//23 64//64 
f 25//25 70//70 67//67 
f 70//70 69//69 71//71 
f 71//71 189//189 72//72 
f 97//97 70//70 71//71 
f 72//72 68//68 64//64 
f 99//99 72//72 64//64 
f 95//95 99//99 64//64 
f 100//100 72//72 99//99 
f 97//97 71//71 98//98 
f 71//71 72//72 73//73 
f 111//111 102//102 182//182 
f 74//74 103//103 75//75 
f 190//190 183//183 194//194 
f 182//182 28//28 111//111 
f 103//103 76//76 75//75 
f 190//190 194//194 104//104 
f 76//76 29//29 75//75 
f 29//29 76//76 109//109 
f 29//29 109//109 127//127 
f 111//111 28//28 191//191 
f 29//29 77//77 31//31 
f 77//77 110//110 31//31 
f 78//78 80//80 32//32 
f 80//80 112//112 79//79 
f 110//110 78//78 31//31 
f 78//78 195//195 80//80 
f 195//195 196//196 80//80 
f 112//112 82//82 79//79 
f 145//145 82//82 112//112 
f 81//81 82//82 113//113 
f 84//84 85//85 83//83 
f 83//83 45//45 84//84 
f 113//113 114//114 81//81 
f 84//84 45//45 86//86 
f 86//86 87//87 84//84 
f 84//84 87//87 85//85 
f 114//114 88//88 81//81 
f 86//86 45//45 46//46 
f 86//86 46//46 51//51 
f 90//90 87//87 86//86 
f 115//115 87//87 90//90 
f 51//51 90//90 86//86 
f 114//114 101//101 88//88 
f 115//115 90//90 89//89 
f 88//88 91//91 57//57 
f 192//192 60//60 187//187 
f 60//60 192//192 94//94 
f 94//94 192//192 89//89 
f 96//96 117//117 92//92 
f 94//94 93//93 60//60 
f 94//94 89//89 93//93 
f 89//89 90//90 93//93 
f 88//88 95//95 91//91 
f 88//88 101//101 193//193 
f 92//92 67//67 96//96 
f 96//96 67//67 70//70 
f 70//70 97//97 96//96 
f 101//101 99//99 193//193 
f 99//99 101//101 100//100 
f 100//100 73//73 72//72 
f 101//101 172//172 100//100 
f 172//172 73//73 100//100 
f 98//98 71//71 73//73 
f 123//123 104//104 194//194 
f 122//122 102//102 111//111 
f 122//122 123//123 194//194 
f 74//74 104//104 103//103 
f 103//103 109//109 76//76 
f 104//104 105//105 103//103 
f 103//103 105//105 106//106 
f 106//106 109//109 103//103 
f 108//108 109//109 106//106 
f 123//123 105//105 104//104 
f 105//105 108//108 106//106 
f 123//123 107//107 105//105 
f 107//107 108//108 105//105 
f 109//109 108//108 126//126 
f 123//123 124//124 107//107 
f 107//107 124//124 108//108 
f 124//124 126//126 108//108 
f 127//127 109//109 126//126 
f 133//133 110//110 77//77 
f 199//199 144//144 195//195 
f 127//127 133//133 77//77 
f 127//127 77//77 29//29 
f 113//113 82//82 145//145 
f 195//195 144//144 196//196 
f 112//112 144//144 145//145 
f 136//136 191//191 146//146 
f 146//146 85//85 148//148 
f 85//85 146//146 191//191 
f 85//85 87//87 154//154 
f 154//154 149//149 85//85 
f 113//113 145//145 114//114 
f 87//87 115//115 152//152 
f 87//87 152//152 154//154 
f 115//115 89//89 155//155 
f 152//152 115//115 158//158 
f 92//92 117//117 116//116 
f 116//116 117//117 168//168 
f 155//155 192//192 197//197 
f 156//156 155//155 197//197 
f 155//155 89//89 192//192 
f 101//101 166//166 120//120 
f 96//96 97//97 118//118 
f 98//98 118//118 97//97 
f 119//119 96//96 118//118 
f 96//96 168//168 117//117 
f 168//168 96//96 119//119 
f 168//168 119//119 170//170 
f 118//118 121//121 169//169 
f 98//98 121//121 118//118 
f 170//170 119//119 169//169 
f 119//119 118//118 169//169 
f 98//98 73//73 121//121 
f 121//121 73//73 172//172 
f 120//120 172//172 101//101 
f 138//138 123//123 122//122 
f 138//138 122//122 135//135 
f 138//138 125//125 123//123 
f 125//125 124//124 123//123 
f 128//128 127//127 126//126 
f 128//128 132//132 127//127 
f 132//132 128//128 134//134 
f 124//124 129//129 126//126 
f 128//128 126//126 129//129 
f 130//130 134//134 128//128 
f 129//129 130//130 128//128 
f 124//124 125//125 198//198 
f 198//198 125//125 131//131 
f 130//130 198//198 131//131 
f 131//131 125//125 200//200 
f 144//144 130//130 131//131 
f 132//132 133//133 127//127 
f 134//134 133//133 132//132 
f 134//134 144//144 199//199 
f 130//130 144//144 134//134 
f 135//135 122//122 111//111 
f 135//135 111//111 191//191 
f 136//136 135//135 191//191 
f 137//137 135//135 136//136 
f 146//146 137//137 136//136 
f 137//137 201//201 142//142 
f 135//135 137//137 139//139 
f 139//139 137//137 140//140 
f 137//137 142//142 140//140 
f 135//135 139//139 138//138 
f 200//200 139//139 141//141 
f 139//139 140//140 141//141 
f 140//140 142//142 141//141 
f 200//200 141//141 131//131 
f 131//131 141//141 142//142 
f 144//144 131//131 143//143 
f 144//144 143//143 145//145 
f 142//142 201//201 147//147 
f 142//142 202//202 131//131 
f 131//131 202//202 143//143 
f 201//201 203//203 147//147 
f 202//202 204//204 143//143 
f 204//204 151//151 143//143 
f 148//148 85//85 149//149 
f 150//150 205//205 206//206 
f 204//204 207//207 151//151 
f 145//145 143//143 151//151 
f 150//150 206//206 159//159 
f 207//207 159//159 151//151 
f 159//159 162//162 151//151 
f 151//151 162//162 166//166 
f 151//151 114//114 145//145 
f 157//157 154//154 152//152 
f 154//154 153//153 149//149 
f 153//153 154//154 157//157 
f 206//206 208//208 159//159 
f 208//208 210//210 159//159 
f 166//166 114//114 151//151 
f 156//156 158//158 155//155 
f 158//158 115//115 155//155 
f 157//157 152//152 158//158 
f 211//211 160//160 210//210 
f 210//210 160//160 159//159 
f 159//159 160//160 161//161 
f 160//160 211//211 209//209 
f 160//160 209//209 165//165 
f 160//160 165//165 161//161 
f 159//159 161//161 162//162 
f 162//162 161//161 166//166 
f 197//197 163//163 156//156 
f 164//164 116//116 168//168 
f 209//209 212//212 214//214 
f 213//213 116//116 164//164 
f 214//214 165//165 209//209 
f 161//161 165//165 167//167 
f 161//161 167//167 166//166 
f 166//166 101//101 114//114 
f 215//215 164//164 168//168 
f 214//214 216//216 171//171 
f 169//169 171//171 216//216 
f 172//172 171//171 169//169 
f 214//214 171//171 165//165 
f 171//171 167//167 165//165 
f 172//172 169//169 121//121 
f 166//166 172//172 120//120 
f 172//172 166//166 167//167 
f 167//167 171//171 172//172 
