#
# The license for this database is specified in the Creative Commons Attribution-Share Alike 2.1 Japan. If you use data from this database, please be sure attribute this database as follows: "BodyParts3D, (c)  The Database Center for Life Science licensed under CC Attribution-Share Alike 2.1 Japan".
# http://dbarchive.biosciencedbc.jp/en/bodyparts3d/lic.html
#
#
# Compatibility version : 4.3
# File ID : FJ3313
# Representation ID : BP20245
# Build-up logic : FMA 3.0 is_a
# Concept ID : FMA71915
# English name : Proximal phalanx of left index finger
# Bounds(mm): (280.814000,-157.057000,685.721000)-(302.810000,-134.089000,723.356000)
# Volume(cm3): 2.056200
#
o FJ3313_BP20245_FMA71915_Proximal phalanx of left index finger
v 280.944 -139.783 718.868
v 280.814 -139.852 717.739
v 280.839 -140.82 717.426
v 280.905 -141.207 716.715
v 280.885 -140.757 716.634
v 281.131 -141.275 715.97
v 281.939 -141.654 720.244
v 281.836 -142.151 719.89
v 282.973 -142.277 720.88
v 282.891 -141.446 720.763
v 283.191 -143.115 720.361
v 281.576 -139.882 719.659
v 281.446 -138.83 719.19
v 282.039 -138.787 719.404
v 281.137 -138.124 718.102
v 282.01 -136.999 718.368
v 282.419 -136.307 717.611
v 281.393 -142.822 718.401
v 281.234 -142.422 716.992
v 281.834 -143.468 718.647
v 281.758 -143.537 718.074
v 281.527 -142.671 716.022
v 282.487 -143.961 718.263
v 282.312 -143.716 716.215
v 283.457 -144.096 717.076
v 281.763 -138.724 715.147
v 283.314 -136.188 715.241
v 281.922 -142.756 715.473
v 282.923 -143.35 715.353
v 283.272 -143.72 715.73
v 281.583 -141.778 715.29
v 282.885 -140.488 713.165
v 283.526 -142.454 713.223
v 286.179 -142.856 721.727
v 286.377 -142.028 721.93
v 286.35 -139.882 720.362
v 284.874 -135.237 718.331
v 285.368 -134.578 717.87
v 284.315 -143.913 718.685
v 285.163 -143.53 716.751
v 286.491 -143.861 718.639
v 285.219 -135.052 715.843
v 284.357 -143.595 715.398
v 284.205 -143.396 714.319
v 285.978 -143.529 715.223
v 286.119 -136.404 712.487
v 286.185 -143.679 711.722
v 286.166 -143.278 707.67
v 288.345 -143.445 722.187
v 287.724 -142.196 722.639
v 287.63 -135.572 719.302
v 287.964 -134.349 718.717
v 287.753 -134.272 716.823
v 288.732 -134.089 717.609
v 286.532 -140.222 708.011
v 287.273 -144.532 707.248
v 287.48 -144.798 705.208
v 288.115 -145.183 705.65
v 288.622 -145.965 702.173
v 291.533 -139.814 722.808
v 290.794 -143.629 722.72
v 291.11 -144.311 721.665
v 291.502 -142.814 723.109
v 292.282 -143.432 722.604
v 291.539 -135.633 721.768
v 289.759 -144.234 718.436
v 292.167 -144.374 720.231
v 289.615 -134.202 719.185
v 289.714 -136.073 711.88
v 291.441 -145.601 707.546
v 289.103 -146.394 702.686
v 290.939 -140.045 703.642
v 288.971 -145.041 700.571
v 290.146 -148.03 697.029
v 290.815 -148.94 697.011
v 290.701 -146.591 696.245
v 292.374 -140.838 723.356
v 293.3 -141.143 723.196
v 294.161 -137.255 722.731
v 292.919 -143.804 721.495
v 293.641 -142.901 721.755
v 292.58 -142.376 723.168
v 293.265 -142.079 722.902
v 294.741 -139.192 722.516
v 292.729 -135.069 721.39
v 294.264 -135.048 720.029
v 293.169 -143.718 719.18
v 294.577 -142.552 719.672
v 294.403 -142.498 718.221
v 292.623 -134.251 718.662
v 292.494 -134.424 717.483
v 293.55 -134.845 717.628
v 292.509 -143.891 716.466
v 292.158 -136.582 711.691
v 292.912 -139.971 703.605
v 293.683 -149.833 698.35
v 291.96 -143.357 698.223
v 293.879 -144.868 695.269
v 292.626 -152.56 692.222
v 293.189 -152.901 692.257
v 292.212 -151.394 693.481
v 291.78 -151.061 692.828
v 292.447 -155.05 690.566
v 293.533 -155.606 691.01
v 292.221 -154.304 690.432
v 292.123 -152.145 691.848
v 292.528 -153.064 691.679
v 292.276 -153.122 691.365
v 292.199 -153.611 691.047
v 292.135 -153.089 691
v 292.195 -152.241 690.885
v 292.647 -153.843 691.35
v 292.346 -151.379 690.792
v 293.47 -156.667 688.265
v 293.635 -156.857 688.72
v 293.639 -155.885 687.526
v 294.07 -156.957 688.166
v 293.947 -155.817 686.873
v 295.066 -140.555 721.567
v 295.404 -137.307 721.873
v 295.618 -138.974 721.538
v 295.951 -139.934 720.267
v 295.48 -136.325 721.032
v 295.932 -137.226 720.719
v 295.824 -136.624 719.584
v 295.39 -141.598 717.272
v 295.514 -141.074 718.525
v 296.167 -139.426 717.649
v 296.355 -140.595 713.629
v 295.778 -143.846 711.088
v 296.203 -140.58 709.252
v 295.064 -148.098 702.621
v 295.984 -142.565 700.31
v 296.613 -149.904 699.128
v 294.231 -143.486 697.188
v 295.876 -154.261 692.086
v 295.479 -149.824 688.987
v 294.478 -156.752 689.852
v 294.36 -157.057 688.882
v 295.707 -156.838 688.592
v 296.013 -156.381 687.421
v 294.036 -150.578 689.009
v 295.643 -151.249 686.806
v 294.552 -155.956 686.49
v 294.369 -153.39 686.437
v 294.629 -154.461 685.987
v 294.98 -153.741 685.721
v 295.717 -152.552 685.94
v 296.657 -153.813 686.017
v 294.901 -152.57 686.04
v 297.288 -143.908 707.431
v 298.656 -147.526 700.177
v 297.625 -149.66 698.791
v 298.43 -146.08 695.339
v 299.334 -153.917 693.572
v 298.539 -153.057 694.187
v 297.408 -155.431 691.164
v 299.082 -155.271 691.941
v 298.618 -155.787 689.665
v 298.331 -155.401 688.089
v 299.216 -155.599 689.108
v 299.233 -154.465 687.298
v 296.788 -149.852 688.653
v 297.105 -154.878 686.635
v 299.58 -147.039 698.638
v 299.894 -147.406 696.943
v 300.101 -148.943 696.807
v 300.203 -152.147 694.813
v 301.278 -154.228 694.382
v 301.336 -153.875 694.501
v 301.287 -154.777 693.933
v 301.256 -155.798 692.5
v 301.688 -154.165 694.413
v 301.725 -154.779 693.991
v 302.055 -154.658 693.888
v 302.013 -154.135 694.109
v 301.991 -155.789 692.512
v 302.36 -154.193 693.389
v 301.645 -151.479 694.077
v 300.443 -148.351 692.374
v 301.652 -149.912 692.403
v 300.795 -156.167 690.89
v 302.246 -156.115 690.769
v 301.913 -150.98 689.782
v 300.262 -154.976 688.089
v 301.162 -155.895 689.401
v 301.612 -154.769 688.203
v 302.158 -155.535 689.217
v 301.399 -153.225 687.574
v 299.519 -149.911 688.53
v 301.41 -150.577 688.579
v 301.254 -151.492 687.719
v 302.67 -155.69 691.509
v 302.81 -155.119 691.017
v 302.554 -153.961 690.759
v 302.756 -155.271 689.942
v 302.476 -152.291 688.636
v 302.453 -154.311 688.387
v 285.368 -134.578 717.87
v 288.345 -143.445 722.187
v 287.964 -134.349 718.717
v 290.146 -148.03 697.029
v 293.639 -155.885 687.526
v 293.947 -155.817 686.873
v 295.48 -136.325 721.032
v 296.355 -140.595 713.629
v 295.064 -148.098 702.621
v 294.478 -156.752 689.852
v 294.552 -155.956 686.49
v 294.552 -155.956 686.49
v 294.98 -153.741 685.721
v 297.288 -143.908 707.431
v 297.288 -143.908 707.431
v 297.288 -143.908 707.431
v 300.203 -152.147 694.813
v 301.336 -153.875 694.501
v 301.688 -154.165 694.413
v 301.725 -154.779 693.991
v 301.645 -151.479 694.077
v 300.443 -148.351 692.374
v 301.41 -150.577 688.579
v 302.453 -154.311 688.387
vn -0.920654 0.0366155 0.388659
vn -0.991522 0.111255 -0.0671224
vn -0.985379 -0.141376 0.0950818
vn -0.974062 -0.178972 -0.138461
vn -0.976113 0.0332661 -0.214701
vn -0.917403 -0.121552 -0.378942
vn -0.686214 -0.0410472 0.72624
vn -0.799639 -0.344054 0.492142
vn -0.458588 -0.252688 0.851966
vn -0.322796 0.29344 0.899831
vn -0.350631 -0.752359 0.557686
vn -0.559194 0.228044 0.797056
vn -0.631377 0.367794 0.682709
vn -0.249616 0.409215 0.87763
vn -0.910654 0.397688 0.112043
vn -0.559846 0.590719 0.581054
vn -0.668152 0.743226 0.0344711
vn -0.916956 -0.349757 0.191997
vn -0.934375 -0.34501 -0.088947
vn -0.657672 -0.651905 0.377476
vn -0.756062 -0.654466 -0.00666648
vn -0.83843 -0.448952 -0.308994
vn -0.294142 -0.940699 0.169014
vn -0.464267 -0.825465 -0.321034
vn 0.0468244 -0.990603 -0.128503
vn -0.872996 0.279381 -0.39978
vn -0.598959 0.684655 -0.415326
vn -0.647876 -0.556494 -0.520165
vn -0.403032 -0.76719 -0.498984
vn -0.215471 -0.900316 -0.378159
vn -0.806805 -0.26061 -0.530234
vn -0.840099 -0.0450899 -0.540555
vn -0.660261 -0.635744 -0.399856
vn -0.320853 -0.544397 0.775039
vn -0.331024 0.206475 0.920756
vn -0.25529 0.449608 0.855967
vn -0.31574 0.561556 0.764829
vn -0.250506 0.965482 -0.0713523
vn -0.0198062 -0.982824 0.18348
vn 0.0700591 -0.993881 -0.0853988
vn -0.0882229 -0.995933 0.0182937
vn -0.309058 0.90466 -0.293382
vn 0.130163 -0.983706 -0.124014
vn -0.192754 -0.942308 -0.27368
vn -0.0734703 -0.99675 -0.0330429
vn -0.383871 0.775746 -0.50086
vn -0.238389 -0.97115 0.0061482
vn -0.900507 -0.305508 -0.309439
vn -0.292308 -0.584465 0.756939
vn -0.304724 0.00544601 0.952425
vn -0.387298 0.364275 0.846938
vn -0.310632 0.610118 0.728879
vn -0.105932 0.96449 -0.241945
vn -0.0217612 0.997184 -0.071766
vn -0.75965 0.367386 -0.536619
vn -0.514878 -0.856244 0.0417864
vn -0.684688 -0.728368 0.0261341
vn -0.421852 -0.888141 0.182334
vn -0.861238 -0.499026 -0.0961394
vn -0.37391 0.324954 0.868675
vn -0.0581459 -0.614728 0.786593
vn 0.0184737 -0.952726 0.303269
vn -0.00282141 -0.311037 0.950394
vn 0.353577 -0.648356 0.674253
vn -0.286137 0.491031 0.822809
vn -0.0776997 -0.995804 -0.0483445
vn 0.276879 -0.960716 0.0190405
vn -0.0966787 0.933315 0.345798
vn -0.000760333 0.92414 -0.382053
vn -0.14922 -0.948903 0.278058
vn -0.514141 -0.835929 0.192045
vn -0.172586 0.85204 -0.494208
vn -0.928373 0.0552544 -0.36752
vn -0.803601 -0.592407 0.0572703
vn -0.668575 -0.722312 0.176844
vn -0.76355 0.390141 -0.514569
vn -0.080797 0.085307 0.993073
vn 0.450987 -0.142586 0.881067
vn 0.287743 0.332269 0.898221
vn 0.53237 -0.804229 0.264192
vn 0.706145 -0.551882 0.443605
vn 0.257632 -0.317105 0.912727
vn 0.606723 -0.407567 0.682479
vn 0.650978 -0.0978289 0.752766
vn 0.161991 0.818971 0.550496
vn 0.529808 0.839771 0.118693
vn 0.604251 -0.795637 -0.0429201
vn 0.778824 -0.617941 0.107621
vn 0.695271 -0.716139 0.0611761
vn 0.21888 0.975044 0.0371699
vn 0.222303 0.936472 -0.271297
vn 0.54223 0.810469 -0.221644
vn 0.260487 -0.965027 0.0294787
vn 0.386196 0.862513 -0.326994
vn 0.151031 0.897641 -0.414041
vn -0.266962 -0.871675 0.410991
vn -0.449481 0.691347 -0.565691
vn -0.191208 0.766167 -0.613537
vn -0.608062 -0.583873 0.537916
vn -0.408879 -0.619685 0.669931
vn -0.586958 -0.707124 0.394278
vn -0.929745 -0.368197 -0.00233503
vn -0.80168 -0.482661 0.35263
vn -0.312687 -0.636657 0.704907
vn -0.972826 -0.0879503 -0.214183
vn -0.905022 -0.353236 0.236978
vn -0.576311 -0.482414 0.659653
vn -0.772419 -0.342022 0.535154
vn -0.870715 -0.23493 0.432047
vn -0.992118 -0.0819061 0.0948324
vn -0.972682 0.0135303 -0.231745
vn -0.516906 -0.401219 0.756195
vn -0.890118 0.123732 -0.438613
vn -0.766796 -0.548333 -0.333698
vn -0.497713 -0.851578 0.16461
vn -0.879722 0.000460644 -0.475489
vn -0.143085 -0.938255 -0.314966
vn -0.375313 -0.886702 -0.270001
vn 0.781623 -0.355901 0.51225
vn 0.752917 0.191132 0.62975
vn 0.861205 -0.119234 0.494074
vn 0.934006 -0.289074 0.209925
vn 0.434032 0.662573 0.61042
vn 0.96444 0.140655 0.223766
vn 0.874897 0.482324 -0.0438146
vn 0.862051 -0.466788 0.197424
vn 0.870677 -0.489794 0.0449735
vn 0.996313 -0.0796404 0.0318994
vn 0.954507 0.29644 -0.0322353
vn 0.490314 -0.819892 0.295583
vn 0.856431 0.507915 -0.0924525
vn -0.0743102 -0.904574 0.419791
vn 0.45134 0.829063 -0.33007
vn 0.138802 -0.81922 0.556428
vn 0.0317029 0.857794 -0.513016
vn -0.230089 -0.684048 0.692198
vn -0.261808 0.763077 -0.590906
vn -0.387509 -0.845421 0.36756
vn -0.0651532 -0.992957 0.0989492
vn 0.235467 -0.971152 0.0376737
vn 0.313582 -0.82654 -0.467437
vn -0.650209 0.509565 -0.563535
vn -0.17414 0.714615 -0.677495
vn -0.579203 -0.570982 -0.58181
vn -0.839847 0.141613 -0.524026
vn -0.586341 -0.109439 -0.802638
vn -0.724721 0.121516 -0.678243
vn 0.110113 0.35018 -0.930188
vn 0.266687 -0.0763948 -0.960751
vn -0.502777 0.409264 -0.761392
vn 0.959117 0.274017 0.0707793
vn 0.67173 -0.548411 0.49802
vn 0.503283 -0.618483 0.603477
vn 0.581069 0.774638 -0.249588
vn -0.286195 -0.597529 0.749034
vn -0.0460632 -0.766082 0.64109
vn -0.0418958 -0.849101 0.526567
vn -0.286088 -0.799389 0.528329
vn 0.161611 -0.980088 -0.115363
vn 0.282636 -0.83708 -0.468416
vn 0.0245077 -0.94035 -0.339326
vn 0.278003 -0.563523 -0.777918
vn -0.0721399 0.797649 -0.598792
vn 0.334767 -0.573373 -0.747779
vn 0.964313 0.00710117 0.264671
vn 0.896128 0.439743 0.0598365
vn 0.859343 -0.17806 0.479401
vn 0.256223 -0.584278 0.770045
vn -0.202691 -0.459904 0.864526
vn -0.274005 -0.321214 0.9065
vn -0.186847 -0.713515 0.675267
vn -0.158299 -0.891728 0.423985
vn -0.0313258 -0.511971 0.858431
vn -0.0950778 -0.710909 0.696827
vn 0.711964 -0.414047 0.567162
vn 0.807314 -0.0318451 0.589263
vn 0.242805 -0.873739 0.421457
vn 0.96405 0.0498878 0.260996
vn 0.559882 -0.424882 0.711342
vn 0.76215 0.642107 -0.0826171
vn 0.931087 0.358183 0.0691502
vn -0.0884875 -0.993274 0.0746784
vn 0.408474 -0.907929 -0.0938846
vn 0.916463 0.398324 -0.0378626
vn 0.132504 -0.79774 -0.588264
vn 0.0760042 -0.89319 -0.443209
vn 0.276251 -0.587499 -0.760612
vn 0.481149 -0.713867 -0.508812
vn 0.450844 -0.123992 -0.883949
vn 0.211615 0.736685 -0.642273
vn 0.283086 0.760684 -0.584142
vn 0.416985 0.38212 -0.824686
vn 0.867207 -0.45912 0.192771
vn 0.998032 0.0321817 0.0538107
vn 0.977738 0.201986 0.0568271
vn 0.950723 -0.261491 -0.166577
vn 0.906699 0.239522 -0.347169
vn 0.593178 -0.339727 -0.72988
vn -0.375376 0.703604 0.603353
vn -0.134649 -0.948454 0.286889
vn -0.129845 0.981535 0.140457
vn -0.955797 -0.0674274 -0.286193
vn -0.375313 -0.886702 -0.270001
vn -0.787328 -0.0402645 -0.615219
vn 0.854234 0.481242 0.196696
vn 0.951174 -0.247947 0.183823
vn 0.501448 -0.718901 0.481384
vn 0.165243 -0.879637 0.446019
vn -0.375313 -0.886702 -0.270001
vn 0.0188553 -0.503165 -0.863984
vn 0.0335818 -0.088746 -0.995488
vn 0.599766 -0.718868 0.351439
vn 0.966229 -0.136631 0.218478
vn 0.830514 -0.419881 0.365987
vn 0.412246 0.106928 0.904776
vn 0.373973 0.114616 0.92033
vn 0.553748 -0.134824 0.821697
vn 0.43221 -0.607091 0.666809
vn 0.761453 0.17077 0.625321
vn 0.320903 0.848204 -0.421392
vn 0.79984 0.536496 -0.269125
vn 0.982814 0.0116691 -0.184228
f 12//12 13//13 1//1
f 1//1 13//13 15//15 
f 8//8 1//1 3//3 
f 15//15 2//2 1//1 
f 2//2 15//15 26//26 
f 3//3 1//1 2//2 
f 2//2 5//5 3//3 
f 2//2 26//26 5//5 
f 3//3 5//5 4//4 
f 5//5 6//6 4//4 
f 7//7 1//1 8//8 
f 20//20 8//8 18//18 
f 8//8 3//3 18//18 
f 20//20 18//18 21//21 
f 7//7 12//12 1//1 
f 8//8 9//9 7//7 
f 7//7 9//9 10//10 
f 7//7 10//10 12//12 
f 9//9 8//8 11//11 
f 11//11 20//20 23//23 
f 8//8 20//20 11//11 
f 34//34 9//9 11//11 
f 39//39 11//11 23//23 
f 12//12 14//14 13//13 
f 15//15 13//13 16//16 
f 14//14 16//16 13//13 
f 14//14 12//12 10//10 
f 36//36 14//14 10//10 
f 36//36 37//37 14//14 
f 15//15 17//17 26//26 
f 37//37 16//16 14//14 
f 17//17 15//15 16//16 
f 17//17 27//27 26//26 
f 16//16 37//37 17//17 
f 18//18 19//19 21//21 
f 18//18 3//3 19//19 
f 3//3 4//4 19//19 
f 22//22 21//21 19//19 
f 6//6 19//19 4//4 
f 6//6 22//22 19//19 
f 6//6 31//31 22//22 
f 21//21 23//23 20//20 
f 22//22 24//24 21//21 
f 24//24 22//22 28//28 
f 21//21 24//24 23//23 
f 23//23 24//24 25//25 
f 39//39 23//23 25//25 
f 30//30 25//25 24//24 
f 39//39 25//25 40//40 
f 26//26 6//6 5//5 
f 26//26 32//32 6//6 
f 22//22 31//31 28//28 
f 29//29 24//24 28//28 
f 29//29 28//28 33//33 
f 30//30 24//24 29//29 
f 44//44 30//30 29//29 
f 44//44 25//25 30//30 
f 33//33 44//44 29//29 
f 32//32 31//31 6//6 
f 33//33 28//28 31//31 
f 31//31 32//32 33//33 
f 26//26 55//55 32//32 
f 32//32 55//55 48//48 
f 27//27 55//55 26//26 
f 34//34 11//11 39//39 
f 10//10 35//35 36//36 
f 9//9 35//35 10//10 
f 9//9 34//34 35//35 
f 35//35 34//34 50//50 
f 37//37 36//36 51//51 
f 42//42 27//27 17//17 
f 42//42 17//17 38//38 
f 17//17 37//37 199//199 
f 54//54 53//53 38//38 
f 53//53 42//42 38//38 
f 40//40 25//25 43//43 
f 41//41 39//39 40//40 
f 41//41 40//40 66//66 
f 66//66 40//40 45//45 
f 42//42 46//46 27//27 
f 53//53 69//69 42//42 
f 44//44 43//43 25//25 
f 43//43 44//44 45//45 
f 40//40 43//43 45//45 
f 44//44 47//47 45//45 
f 44//44 33//33 47//47 
f 55//55 27//27 46//46 
f 46//46 42//42 69//69 
f 33//33 32//32 48//48 
f 97//97 46//46 72//72 
f 46//46 97//97 55//55 
f 33//33 56//56 47//47 
f 48//48 56//56 33//33 
f 49//49 34//34 39//39 
f 50//50 34//34 49//49 
f 50//50 49//49 61//61 
f 50//50 61//61 63//63 
f 50//50 60//60 36//36 
f 36//36 35//35 50//50 
f 63//63 77//77 50//50 
f 200//200 39//39 41//41 
f 62//62 200//200 41//41 
f 62//62 41//41 66//66 
f 36//36 60//60 51//51 
f 37//37 52//52 199//199 
f 38//38 201//201 54//54 
f 51//51 52//52 37//37 
f 54//54 201//201 68//68 
f 66//66 45//45 47//47 
f 69//69 72//72 46//46 
f 47//47 56//56 70//70 
f 48//48 57//57 56//56 
f 73//73 59//59 48//48 
f 70//70 56//56 58//58 
f 57//57 58//58 56//56 
f 48//48 55//55 73//73 
f 57//57 48//48 59//59 
f 58//58 57//57 71//71 
f 57//57 59//59 71//71 
f 77//77 63//63 82//82 
f 200//200 62//62 61//61 
f 61//61 62//62 64//64 
f 64//64 63//63 61//61 
f 63//63 64//64 82//82 
f 62//62 80//80 64//64 
f 67//67 80//80 62//62 
f 77//77 60//60 50//50 
f 60//60 65//65 51//51 
f 65//65 52//52 51//51 
f 68//68 52//52 65//65 
f 68//68 65//65 85//85 
f 90//90 54//54 68//68 
f 68//68 85//85 90//90 
f 67//67 62//62 66//66 
f 54//54 69//69 53//53 
f 91//91 69//69 54//54 
f 93//93 66//66 47//47 
f 91//91 94//94 69//69 
f 94//94 95//95 69//69 
f 47//47 70//70 93//93 
f 95//95 72//72 69//69 
f 58//58 71//71 70//70 
f 96//96 71//71 75//75 
f 70//70 71//71 96//96 
f 75//75 71//71 59//59 
f 59//59 74//74 75//75 
f 101//101 96//96 75//75 
f 59//59 73//73 202//202 
f 73//73 113//113 202//202 
f 76//76 73//73 55//55 
f 55//55 97//97 76//76 
f 75//75 74//74 102//102 
f 102//102 202//202 113//113 
f 102//102 101//101 75//75 
f 73//73 76//76 113//113 
f 78//78 77//77 82//82 
f 78//78 79//79 77//77 
f 65//65 60//60 77//77 
f 79//79 65//65 77//77 
f 65//65 79//79 85//85 
f 79//79 84//84 120//120 
f 79//79 123//123 85//85 
f 81//81 64//64 80//80 
f 82//82 64//64 83//83 
f 64//64 81//81 83//83 
f 82//82 83//83 78//78 
f 83//83 81//81 119//119 
f 83//83 119//119 78//78 
f 78//78 84//84 79//79 
f 119//119 84//84 78//78 
f 85//85 86//86 90//90 
f 86//86 85//85 123//123 
f 92//92 90//90 86//86 
f 125//125 92//92 86//86 
f 125//125 86//86 205//205 
f 66//66 93//93 67//67 
f 67//67 87//87 80//80 
f 87//87 67//67 93//93 
f 87//87 88//88 80//80 
f 87//87 93//93 89//89 
f 80//80 88//88 81//81 
f 88//88 87//87 89//89 
f 119//119 81//81 88//88 
f 92//92 125//125 131//131 
f 90//90 91//91 54//54 
f 91//91 90//90 92//92 
f 92//92 94//94 91//91 
f 130//130 126//126 89//89 
f 130//130 89//89 93//93 
f 92//92 131//131 94//94 
f 130//130 93//93 70//70 
f 130//130 70//70 132//132 
f 95//95 135//135 72//72 
f 135//135 97//97 72//72 
f 98//98 97//97 135//135 
f 142//142 76//76 97//97 
f 142//142 97//97 98//98 
f 106//106 99//99 101//101 
f 101//101 99//99 100//100 
f 101//101 100//100 136//136 
f 101//101 102//102 106//106 
f 102//102 111//111 106//106 
f 102//102 113//113 111//111 
f 103//103 105//105 114//114 
f 105//105 116//116 114//114 
f 103//103 104//104 112//112 
f 103//103 115//115 104//104 
f 104//104 115//115 138//138 
f 104//104 136//136 112//112 
f 106//106 111//111 110//110 
f 107//107 99//99 108//108 
f 99//99 106//106 108//108 
f 106//106 110//110 108//108 
f 112//112 100//100 107//107 
f 112//112 107//107 108//108 
f 109//109 112//112 108//108 
f 109//109 108//108 110//110 
f 109//109 103//103 112//112 
f 105//105 103//103 109//109 
f 110//110 105//105 109//109 
f 110//110 111//111 105//105 
f 105//105 111//111 113//113 
f 105//105 113//113 116//116 
f 100//100 99//99 107//107 
f 136//136 100//100 112//112 
f 113//113 76//76 142//142 
f 114//114 115//115 103//103 
f 138//138 115//115 139//139 
f 139//139 115//115 117//117 
f 117//117 115//115 114//114 
f 144//144 114//114 116//116 
f 117//117 114//114 144//144 
f 209//209 203//203 118//118 
f 139//139 117//117 140//140 
f 142//142 116//116 113//113 
f 121//121 119//119 122//122 
f 119//119 121//121 84//84 
f 123//123 79//79 120//120 
f 120//120 84//84 121//121 
f 120//120 121//121 124//124 
f 120//120 124//124 205//205 
f 121//121 122//122 124//124 
f 205//205 124//124 125//125 
f 88//88 89//89 127//127 
f 89//89 126//126 127//127 
f 122//122 119//119 88//88 
f 127//127 126//126 128//128 
f 88//88 127//127 122//122 
f 127//127 128//128 122//122 
f 124//124 128//128 125//125 
f 124//124 122//122 128//128 
f 128//128 131//131 125//125 
f 128//128 129//129 131//131 
f 128//128 126//126 206//206 
f 131//131 129//129 151//151 
f 126//126 130//130 212//212 
f 213//213 206//206 126//126 
f 131//131 133//133 94//94 
f 96//96 132//132 70//70 
f 134//134 132//132 96//96 
f 153//153 207//207 134//134 
f 94//94 133//133 95//95 
f 134//134 96//96 156//156 
f 133//133 135//135 95//95 
f 133//133 190//190 135//135 
f 136//136 96//96 101//101 
f 156//156 96//96 136//136 
f 190//190 98//98 135//135 
f 163//163 137//137 98//98 
f 190//190 163//163 98//98 
f 208//208 157//157 104//104 
f 208//208 140//140 157//157 
f 157//157 136//136 104//104 
f 142//142 98//98 137//137 
f 140//140 208//208 139//139 
f 141//141 140//140 117//117 
f 140//140 141//141 159//159 
f 141//141 160//160 159//159 
f 116//116 145//145 204//204 
f 116//116 142//142 145//145 
f 143//143 142//142 137//137 
f 145//145 142//142 150//150 
f 142//142 143//143 150//150 
f 137//137 163//163 143//143 
f 143//143 190//190 148//148 
f 163//163 190//190 143//143 
f 210//210 141//141 117//117 
f 146//146 204//204 145//145 
f 210//210 204//204 146//146 
f 145//145 150//150 147//147 
f 146//146 145//145 147//147 
f 210//210 146//146 211//211 
f 150//150 148//148 211//211 
f 210//210 211//211 149//149 
f 149//149 211//211 148//148 
f 164//164 141//141 210//210 
f 164//164 210//210 149//149 
f 150//150 143//143 148//148 
f 207//207 212//212 130//130 
f 153//153 152//152 207//207 
f 212//212 207//207 152//152 
f 214//214 152//152 165//165 
f 151//151 165//165 131//131 
f 152//152 153//153 167//167 
f 133//133 131//131 154//154 
f 131//131 166//166 154//154 
f 168//168 153//153 134//134 
f 134//134 156//156 168//168 
f 153//153 168//168 167//167 
f 154//154 190//190 133//133 
f 155//155 136//136 157//157 
f 169//169 155//155 171//171 
f 155//155 158//158 171//171 
f 156//156 136//136 155//155 
f 157//157 158//158 155//155 
f 157//157 159//159 182//182 
f 158//158 157//157 182//182 
f 182//182 159//159 161//161 
f 172//172 171//171 158//158 
f 158//158 182//182 172//172 
f 159//159 157//157 140//140 
f 164//164 160//160 141//141 
f 161//161 159//159 160//160 
f 160//160 185//185 161//161 
f 162//162 185//185 160//160 
f 160//160 164//164 162//162 
f 149//149 162//162 164//164 
f 148//148 190//190 149//149 
f 165//165 152//152 167//167 
f 167//167 166//166 165//165 
f 166//166 167//167 181//181 
f 165//165 166//166 131//131 
f 167//167 168//168 179//179 
f 166//166 181//181 180//180 
f 167//167 219//219 181//181 
f 166//166 180//180 154//154 
f 169//169 170//170 155//155 
f 168//168 155//155 170//170 
f 169//169 173//173 170//170 
f 217//217 219//219 216//216 
f 216//216 219//219 215//215 
f 171//171 174//174 173//173 
f 173//173 169//169 171//171 
f 172//172 177//177 171//171 
f 217//217 218//218 175//175 
f 217//217 175//175 176//176 
f 176//176 219//219 217//217 
f 175//175 218//218 177//177 
f 177//177 174//174 171//171 
f 176//176 175//175 178//178 
f 219//219 176//176 178//178 
f 181//181 219//219 178//178 
f 178//178 175//175 193//193 
f 193//193 175//175 177//177 
f 178//178 195//195 181//181 
f 168//168 156//156 155//155 
f 190//190 154//154 220//220 
f 191//191 190//190 220//220 
f 221//221 180//180 181//181 
f 161//161 186//186 182//182 
f 177//177 172//172 182//182 
f 183//183 182//182 186//186 
f 186//186 188//188 183//183 
f 183//183 177//177 182//182 
f 193//193 177//177 183//183 
f 183//183 188//188 196//196 
f 195//195 184//184 181//181 
f 195//195 197//197 184//184 
f 221//221 181//181 184//184 
f 161//161 185//185 186//186 
f 185//185 162//162 187//187 
f 187//187 186//186 185//185 
f 188//188 186//186 187//187 
f 187//187 198//198 188//188 
f 196//196 188//188 198//198 
f 198//198 187//187 189//189 
f 187//187 162//162 189//189 
f 189//189 162//162 149//149 
f 189//189 149//149 192//192 
f 189//189 197//197 198//198 
f 192//192 197//197 189//189 
f 191//191 192//192 190//190 
f 192//192 149//149 190//190 
f 178//178 193//193 194//194 
f 178//178 194//194 195//195 
f 195//195 194//194 196//196 
f 183//183 196//196 193//193 
f 194//194 193//193 196//196 
f 195//195 196//196 197//197 
f 197//197 196//196 222//222 
f 184//184 197//197 221//221 
f 192//192 221//221 197//197 
